<?xml version="1.0" standalone="no"?>
<!DOCTYPE svg PUBLIC "-//W3C//DTD SVG 20010904//EN"
 "http://www.w3.org/TR/2001/REC-SVG-20010904/DTD/svg10.dtd">
<svg version="1.0" xmlns="http://www.w3.org/2000/svg"
 width="700.000000pt" height="700.000000pt" viewBox="0 0 700.000000 700.000000"
 preserveAspectRatio="xMidYMid meet">
<metadata>
Created by potrace 1.14, written by Peter Selinger 2001-2017
</metadata>
<g transform="translate(0.000000,700.000000) scale(0.100000,-0.100000)"
fill="#000000" stroke="none">
<path d="M3445 6883 c-11 -2 -49 -14 -84 -25 -69 -22 -94 -36 -574 -315 -139
-80 -265 -153 -282 -163 -16 -9 -73 -42 -125 -72 -52 -30 -115 -66 -140 -80
-25 -14 -174 -100 -333 -192 -158 -92 -302 -175 -320 -185 -17 -10 -72 -42
-122 -71 -49 -29 -108 -62 -130 -75 -22 -12 -112 -64 -200 -115 -88 -52 -169
-99 -180 -105 -208 -113 -306 -200 -367 -325 -69 -140 -66 -55 -66 -1679 0
-1646 -5 -1531 74 -1682 70 -133 115 -167 571 -431 224 -130 477 -276 561
-325 84 -48 160 -92 170 -98 160 -92 690 -399 732 -424 19 -11 41 -24 49 -28
8 -3 143 -81 301 -173 366 -212 413 -231 569 -231 147 1 201 23 590 247 185
107 343 198 351 203 8 5 60 35 115 67 55 32 197 114 315 182 118 69 230 134
249 144 19 11 210 121 425 245 215 124 405 234 421 243 115 65 238 138 280
165 131 84 226 224 259 380 10 49 13 360 13 1526 0 1621 4 1520 -67 1666 -60
122 -143 203 -300 291 -34 19 -189 109 -480 277 -74 43 -306 177 -515 298
-209 121 -468 270 -575 332 -953 551 -904 526 -1070 530 -52 1 -104 0 -115 -2z
m225 -756 c31 -9 139 -64 240 -123 102 -58 210 -120 240 -136 30 -17 60 -34
65 -38 8 -6 143 -85 309 -180 59 -34 272 -157 396 -230 69 -40 140 -81 158
-92 33 -18 126 -72 449 -259 224 -130 281 -187 335 -336 21 -58 21 -62 23
-1208 1 -1240 3 -1194 -52 -1313 -27 -60 -125 -167 -178 -194 -24 -12 -221
-125 -388 -222 -18 -10 -180 -104 -362 -209 -181 -104 -394 -228 -473 -273
-79 -46 -145 -84 -147 -84 -3 0 -28 -15 -57 -33 -29 -19 -60 -37 -68 -40 -8
-4 -22 -11 -30 -17 -17 -11 -220 -129 -290 -168 -25 -13 -49 -28 -55 -32 -53
-37 -166 -64 -257 -61 -99 2 -165 32 -499 226 -178 103 -484 280 -679 393
-195 112 -367 213 -382 223 -15 10 -30 19 -33 19 -3 0 -38 20 -78 43 -39 24
-157 93 -262 153 -208 119 -277 177 -329 273 -56 105 -55 80 -56 1311 0 1248
-3 1191 61 1310 34 63 83 118 144 159 22 15 137 83 255 151 118 68 375 216
570 328 195 113 375 216 400 230 25 14 57 33 72 43 14 11 29 19 32 19 3 0 83
45 177 100 94 55 172 100 174 100 2 0 47 26 102 58 127 75 186 103 248 117 65
15 156 12 225 -8z"/>
<path d="M3467 5452 c-10 -2 -292 -162 -625 -354 -334 -193 -620 -359 -637
-368 -164 -94 -185 -112 -185 -163 0 -37 33 -97 53 -97 4 0 288 -163 1089
-626 146 -85 280 -159 297 -165 18 -6 46 -8 64 -5 28 6 198 100 552 306 50 29
108 62 130 75 150 84 696 401 723 418 38 25 63 75 55 109 -8 33 -45 69 -100
98 -26 14 -50 28 -53 31 -3 3 -19 13 -36 22 -18 9 -213 122 -435 250 -222 128
-424 245 -449 259 -25 14 -81 47 -125 73 -44 26 -100 59 -125 73 -25 13 -58
32 -75 42 -31 19 -87 29 -118 22z"/>
<path d="M1889 4283 c-73 -29 -70 18 -67 -888 l3 -810 23 -32 c13 -18 64 -57
115 -87 145 -85 328 -191 377 -218 25 -14 101 -58 170 -98 69 -40 139 -81 157
-91 17 -10 139 -80 270 -156 356 -206 343 -199 390 -185 29 9 44 21 59 49 20
37 21 53 19 838 -1 729 -2 803 -18 830 -18 33 -52 75 -60 75 -3 0 -54 29 -114
63 -124 74 -808 469 -868 502 -22 13 -80 46 -130 75 -49 29 -106 61 -125 72
-19 11 -50 29 -68 40 -50 30 -93 37 -133 21z"/>
<path d="M5029 4262 c-30 -16 -184 -104 -343 -196 -159 -93 -310 -180 -335
-194 -25 -14 -74 -43 -109 -64 -34 -21 -64 -38 -67 -38 -3 0 -33 -17 -67 -38
-35 -21 -135 -80 -223 -130 -169 -96 -205 -125 -224 -181 -8 -24 -11 -259 -11
-818 0 -859 -2 -836 59 -867 59 -31 82 -23 303 105 116 66 224 128 241 138 18
10 57 33 87 51 30 18 73 43 95 55 190 104 726 421 748 442 16 14 34 38 40 52
7 18 11 268 12 818 2 873 5 833 -60 873 -44 27 -81 25 -146 -8z"/>
</g>
</svg>
