<svg width="22" height="22" viewBox="0 0 22 22" fill="none" xmlns="http://www.w3.org/2000/svg">
<g id="vuesax/outline/messages-3">
<g id="messages-3">
<path id="Vector" d="M15.9 18.0098C15.59 18.0098 15.28 17.9197 15.01 17.7397L14.05 17.1097C13.78 16.9297 13.65 16.5898 13.74 16.2798C13.81 16.0498 13.84 15.7797 13.84 15.4797V11.4097C13.84 9.77973 12.82 8.75977 11.19 8.75977H4.39999C4.27999 8.75977 4.17 8.76978 4.06 8.77979C3.85 8.78979 3.65001 8.71977 3.49001 8.57977C3.33001 8.43977 3.25 8.23979 3.25 8.02979V5.25977C3.25 2.31977 5.31 0.259766 8.25 0.259766H16.75C19.69 0.259766 21.75 2.31977 21.75 5.25977V10.3597C21.75 11.8097 21.26 13.0897 20.36 13.9697C19.64 14.6997 18.64 15.1698 17.5 15.3098V16.4197C17.5 17.0197 17.17 17.5598 16.65 17.8398C16.41 17.9498 16.15 18.0098 15.9 18.0098ZM15.3 16.1298L15.95 16.4998C16.01 16.4698 16.01 16.4197 16.01 16.4097V14.5997C16.01 14.1897 16.35 13.8497 16.76 13.8497C17.81 13.8497 18.7 13.5198 19.31 12.8998C19.94 12.2798 20.26 11.3997 20.26 10.3497V5.24976C20.26 3.11976 18.89 1.74976 16.76 1.74976H8.25999C6.12999 1.74976 4.75999 3.11976 4.75999 5.24976V7.24976H11.2C13.64 7.24976 15.35 8.95978 15.35 11.3998V15.4697C15.34 15.6997 15.33 15.9198 15.3 16.1298Z" fill="white"/>
<path id="Vector_2" d="M5.07001 21.75C4.85001 21.75 4.62 21.7 4.41 21.59C3.94 21.34 3.64999 20.86 3.64999 20.32V19.56C2.76999 19.42 1.99 19.05 1.41 18.47C0.650004 17.71 0.25 16.67 0.25 15.47V11.4C0.25 9.14002 1.72999 7.48002 3.92999 7.27002C4.08999 7.26002 4.23999 7.25 4.39999 7.25H11.19C13.63 7.25 15.34 8.96002 15.34 11.4V15.47C15.34 15.91 15.29 16.32 15.18 16.69C14.73 18.49 13.2 19.62 11.19 19.62H8.7L5.87 21.5C5.63 21.67 5.35001 21.75 5.07001 21.75ZM4.39999 8.75C4.27999 8.75 4.17 8.76002 4.06 8.77002C2.62 8.90002 1.75 9.89002 1.75 11.4V15.47C1.75 16.27 2 16.94 2.47 17.41C2.93 17.87 3.59999 18.12 4.39999 18.12C4.80999 18.12 5.14999 18.46 5.14999 18.87V20.18L8.05 18.25C8.17 18.17 8.32 18.12 8.47 18.12H11.19C12.51 18.12 13.44 17.46 13.73 16.3C13.8 16.05 13.84 15.77 13.84 15.47V11.4C13.84 9.77002 12.82 8.75 11.19 8.75H4.39999Z" fill="white"/>
</g>
</g>
</svg>
