<svg width="22" height="22" viewBox="0 0 22 22" fill="none" xmlns="http://www.w3.org/2000/svg">
<g id="vuesax/outline/clock">
<g id="clock">
<path id="Vector" d="M11 21.75C5.07 21.75 0.25 16.93 0.25 11C0.25 5.07 5.07 0.25 11 0.25C16.93 0.25 21.75 5.07 21.75 11C21.75 16.93 16.93 21.75 11 21.75ZM11 1.75C5.9 1.75 1.75 5.9 1.75 11C1.75 16.1 5.9 20.25 11 20.25C16.1 20.25 20.25 16.1 20.25 11C20.25 5.9 16.1 1.75 11 1.75Z" fill="white"/>
<path id="Vector_2" d="M14.7096 14.9298C14.5796 14.9298 14.4496 14.8998 14.3296 14.8198L11.2296 12.9698C10.4596 12.5098 9.88965 11.4998 9.88965 10.6098V6.50977C9.88965 6.09977 10.2296 5.75977 10.6396 5.75977C11.0496 5.75977 11.3896 6.09977 11.3896 6.50977V10.6098C11.3896 10.9698 11.6896 11.4998 11.9996 11.6798L15.0996 13.5298C15.4596 13.7398 15.5696 14.1998 15.3596 14.5598C15.2096 14.7998 14.9596 14.9298 14.7096 14.9298Z" fill="white"/>
</g>
</g>
</svg>
