<svg width="40" height="40" viewBox="0 0 40 40" fill="none" xmlns="http://www.w3.org/2000/svg">
<path d="M15.2829 25.9666C14.9663 25.9666 14.6496 25.85 14.3996 25.6C13.9163 25.1166 13.9163 24.3166 14.3996 23.8333L23.8329 14.4C24.3163 13.9166 25.1163 13.9166 25.5996 14.4C26.0829 14.8833 26.0829 15.6833 25.5996 16.1666L16.1663 25.6C15.9329 25.85 15.5996 25.9666 15.2829 25.9666Z" fill="white"/>
<path d="M24.7163 25.9666C24.3996 25.9666 24.0829 25.85 23.8329 25.6L14.3996 16.1666C13.9163 15.6833 13.9163 14.8833 14.3996 14.4C14.8829 13.9166 15.6829 13.9166 16.1663 14.4L25.5996 23.8333C26.0829 24.3166 26.0829 25.1166 25.5996 25.6C25.3496 25.85 25.0329 25.9666 24.7163 25.9666Z" fill="white"/>
<path d="M24.9997 37.9166H14.9997C5.94967 37.9166 2.08301 34.05 2.08301 25V15C2.08301 5.94998 5.94967 2.08331 14.9997 2.08331H24.9997C34.0497 2.08331 37.9163 5.94998 37.9163 15V25C37.9163 34.05 34.0497 37.9166 24.9997 37.9166ZM14.9997 4.58331C7.31634 4.58331 4.58301 7.31665 4.58301 15V25C4.58301 32.6833 7.31634 35.4166 14.9997 35.4166H24.9997C32.683 35.4166 35.4163 32.6833 35.4163 25V15C35.4163 7.31665 32.683 4.58331 24.9997 4.58331H14.9997Z" fill="white"/>
</svg>
