<svg width="20" height="20" viewBox="0 0 20 20" fill="none" xmlns="http://www.w3.org/2000/svg">
<path d="M2.45525 19.5465C1.94858 19.5465 1.44191 19.3598 1.04191 18.9598C0.268581 18.1865 0.268581 16.9065 1.04191 16.1332L16.1352 1.03984C16.9086 0.266506 18.1886 0.266506 18.9619 1.03984C19.7352 1.81317 19.7352 3.09317 18.9619 3.8665L3.86858 18.9598C3.49525 19.3598 2.96191 19.5465 2.45525 19.5465Z" fill="white"/>
<path d="M17.5486 19.5465C17.0419 19.5465 16.5352 19.3598 16.1352 18.9598L1.04191 3.8665C0.268581 3.09317 0.268581 1.81317 1.04191 1.03984C1.81525 0.266506 3.09525 0.266506 3.86858 1.03984L18.9619 16.1332C19.7352 16.9065 19.7352 18.1865 18.9619 18.9598C18.5619 19.3598 18.0552 19.5465 17.5486 19.5465Z" fill="white"/>
</svg>
