<svg width="30" height="30" viewBox="0 0 20 20" fill="none" xmlns="http://www.w3.org/2000/svg">
<g id="Icon/Wifi/Strong">
<path id="Vector" d="M10.0002 14.3936C9.62362 14.3936 9.31836 14.6988 9.31836 15.0754C9.31836 15.4519 9.62362 15.7572 10.0002 15.7572H10.007C10.3836 15.7572 10.6888 15.4519 10.6888 15.0754C10.6888 14.6988 10.3836 14.3936 10.007 14.3936H10.0002Z" fill="#36B37E"/>
<path id="Vector_2" d="M8.09073 13.1764C8.60054 12.6767 9.28595 12.3968 9.99982 12.3968C10.7137 12.3968 11.3991 12.6767 11.9089 13.1764C12.1778 13.44 12.6095 13.4357 12.8731 13.1668C13.1367 12.8979 13.1324 12.4662 12.8635 12.2026C12.0987 11.4531 11.0706 11.0332 9.99982 11.0332C8.92901 11.0332 7.90089 11.4531 7.13619 12.2026C6.86727 12.4662 6.86295 12.8979 7.12654 13.1668C7.39013 13.4357 7.82181 13.44 8.09073 13.1764Z" fill="#36B37E"/>
<path id="Vector_3" d="M5.70499 10.7896C6.85205 9.66529 8.39423 9.03551 10.0004 9.03551C11.6066 9.03551 13.1488 9.66529 14.2959 10.7896C14.5648 11.0532 14.9965 11.0489 15.2601 10.78C15.5237 10.5111 15.5193 10.0794 15.2504 9.8158C13.8485 8.4416 11.9636 7.67188 10.0004 7.67188C8.03729 7.67188 6.15241 8.4416 4.75044 9.8158C4.48153 10.0794 4.47721 10.5111 4.7408 10.78C5.00439 11.0489 5.43607 11.0532 5.70499 10.7896Z" fill="#36B37E"/>
<path id="Vector_4" d="M10 5.53063C7.65204 5.53063 5.38644 6.39601 3.63637 7.96132C3.3557 8.21236 2.92467 8.18834 2.67363 7.90767C2.42259 7.627 2.44661 7.19596 2.72728 6.94492C4.72736 5.156 7.31661 4.16699 10 4.16699C12.6834 4.16699 15.2726 5.156 17.2727 6.94492C17.5534 7.19596 17.5774 7.627 17.3264 7.90767C17.0753 8.18834 16.6443 8.21236 16.3636 7.96132C14.6136 6.39601 12.348 5.53063 10 5.53063Z" fill="#36B37E"/>
</g>
</svg>
