<svg width="30" height="30" viewBox="0 0 20 20" fill="none" xmlns="http://www.w3.org/2000/svg">
<g id="Icon/Wifi/Strong">
<path id="Vector" d="M10.0002 14.3936C9.62362 14.3936 9.31836 14.6988 9.31836 15.0754C9.31836 15.4519 9.62362 15.7572 10.0002 15.7572H10.007C10.3836 15.7572 10.6888 15.4519 10.6888 15.0754C10.6888 14.6988 10.3836 14.3936 10.007 14.3936H10.0002Z" fill="#36B37E"/>
<path id="Vector_2" d="M8.09073 13.1764C8.60054 12.6767 9.28595 12.3968 9.99982 12.3968C10.7137 12.3968 11.3991 12.6767 11.9089 13.1764C12.1778 13.44 12.6095 13.4357 12.8731 13.1668C13.1367 12.8979 13.1324 12.4662 12.8635 12.2026C12.0987 11.4531 11.0706 11.0332 9.99982 11.0332C8.92901 11.0332 7.90089 11.4531 7.13619 12.2026C6.86727 12.4662 6.86295 12.8979 7.12654 13.1668C7.39013 13.4357 7.82181 13.44 8.09073 13.1764Z" fill="#36B37E"/>
</g>
</svg>
