<svg width="22" height="22" viewBox="0 0 22 22" fill="none" xmlns="http://www.w3.org/2000/svg">
<g id="vuesax/outline/import">
<g id="import">
<path id="Vector" d="M14.26 21.25H7.74001C2.83001 21.25 0.730011 19.15 0.730011 14.24V14.11C0.730011 9.66999 2.48001 7.53 6.40001 7.16C6.80001 7.13 7.18001 7.43 7.22001 7.84C7.26001 8.25 6.96001 8.62 6.54001 8.66C3.40001 8.95 2.23001 10.43 2.23001 14.12V14.25C2.23001 18.32 3.67001 19.76 7.74001 19.76H14.26C18.33 19.76 19.77 18.32 19.77 14.25V14.12C19.77 10.41 18.58 8.93 15.38 8.66C14.97 8.62 14.66 8.26 14.7 7.85C14.74 7.44 15.09 7.13 15.51 7.17C19.49 7.51 21.27 9.66 21.27 14.13V14.26C21.27 19.15 19.17 21.25 14.26 21.25Z" fill="white"/>
<path id="Vector_2" d="M11 14.63C10.59 14.63 10.25 14.29 10.25 13.88V1C10.25 0.59 10.59 0.25 11 0.25C11.41 0.25 11.75 0.59 11.75 1V13.88C11.75 14.3 11.41 14.63 11 14.63Z" fill="white"/>
<path id="Vector_3" d="M11 15.75C10.81 15.75 10.62 15.68 10.47 15.53L7.12 12.18C6.83 11.89 6.83 11.41 7.12 11.12C7.41 10.83 7.89 10.83 8.18 11.12L11 13.94L13.82 11.12C14.11 10.83 14.59 10.83 14.88 11.12C15.17 11.41 15.17 11.89 14.88 12.18L11.53 15.53C11.38 15.68 11.19 15.75 11 15.75Z" fill="white"/>
</g>
</g>
</svg>
