<svg width="22" height="22" viewBox="0 0 22 22" fill="none" xmlns="http://www.w3.org/2000/svg">
<g id="vuesax/outline/emoji-happy">
<g id="emoji-happy">
<path id="Vector" d="M14 21.75H8C2.57 21.75 0.25 19.43 0.25 14V8C0.25 2.57 2.57 0.25 8 0.25H14C19.43 0.25 21.75 2.57 21.75 8V14C21.75 19.43 19.43 21.75 14 21.75ZM8 1.75C3.39 1.75 1.75 3.39 1.75 8V14C1.75 18.61 3.39 20.25 8 20.25H14C18.61 20.25 20.25 18.61 20.25 14V8C20.25 3.39 18.61 1.75 14 1.75H8Z" fill="white" fill-opacity="0.45"/>
<path id="Vector_2" d="M14.5 9.5C13.26 9.5 12.25 8.49 12.25 7.25C12.25 6.01 13.26 5 14.5 5C15.74 5 16.75 6.01 16.75 7.25C16.75 8.49 15.74 9.5 14.5 9.5ZM14.5 6.5C14.09 6.5 13.75 6.84 13.75 7.25C13.75 7.66 14.09 8 14.5 8C14.91 8 15.25 7.66 15.25 7.25C15.25 6.84 14.91 6.5 14.5 6.5Z" fill="white" fill-opacity="0.45"/>
<path id="Vector_3" d="M7.5 9.5C6.26 9.5 5.25 8.49 5.25 7.25C5.25 6.01 6.26 5 7.5 5C8.74 5 9.75 6.01 9.75 7.25C9.75 8.49 8.74 9.5 7.5 9.5ZM7.5 6.5C7.09 6.5 6.75 6.84 6.75 7.25C6.75 7.66 7.09 8 7.5 8C7.91 8 8.25 7.66 8.25 7.25C8.25 6.84 7.91 6.5 7.5 6.5Z" fill="white" fill-opacity="0.45"/>
<path id="Vector_4" d="M11 18.45C8.1 18.45 5.75 16.09 5.75 13.2C5.75 12.29 6.49 11.55 7.4 11.55H14.6C15.51 11.55 16.25 12.29 16.25 13.2C16.25 16.09 13.9 18.45 11 18.45ZM7.4 13.05C7.32 13.05 7.25 13.12 7.25 13.2C7.25 15.27 8.93 16.95 11 16.95C13.07 16.95 14.75 15.27 14.75 13.2C14.75 13.12 14.68 13.05 14.6 13.05H7.4Z" fill="white" fill-opacity="0.45"/>
</g>
</g>
</svg>
