
<svg width="19" height="18" viewBox="0 0 19 18" fill="none" xmlns="http://www.w3.org/2000/svg">
<path d="M16.9281 7.96975C16.8925 7.71365 16.6678 7.53113 16.4092 7.53113H16.25H10.0671C9.7702 7.53113 9.52862 7.77019 9.52551 8.06711L9.50574 9.95266C9.50258 10.254 9.746 10.5 10.0474 10.5H13.7386C13.1203 12.2464 11.4586 13.5 9.5 13.5C7.01488 13.5 5 11.4851 5 9C5 6.51488 7.01488 4.5 9.5 4.5C10.4636 4.5 11.3542 4.80536 12.0855 5.32205C12.3198 5.48759 12.6438 5.48119 12.8467 5.27834L14.21 3.91499C14.4268 3.69817 14.4217 3.34314 14.1826 3.15115C12.8995 2.12069 11.2738 1.5 9.5 1.5C5.35813 1.5 2 4.85813 2 9C2 13.1419 5.35813 16.5 9.5 16.5C13.6419 16.5 17 13.1419 17 9C17 8.65036 16.975 8.30653 16.9281 7.96975Z" fill="#FFC107"/>
<path d="M2.86475 5.50912L5.32887 7.31625C5.99562 5.6655 7.61037 4.5 9.5 4.5C10.4636 4.5 11.3542 4.80536 12.0855 5.32205C12.3198 5.48759 12.6438 5.48119 12.8467 5.27834L14.21 3.91499C14.4268 3.69817 14.4217 3.34314 14.1826 3.15114C12.8995 2.12069 11.2738 1.5 9.5 1.5C6.61925 1.5 4.121 3.12637 2.86475 5.50912Z" fill="#FF3D00"/>
<path d="M9.50012 16.4999C11.4374 16.4999 13.1976 15.7585 14.5285 14.5529L12.2072 12.5886C11.4289 13.1805 10.4779 13.5007 9.50012 13.4999C7.54937 13.4999 5.89299 12.256 5.26899 10.5201L2.82324 12.4045C4.06449 14.8334 6.58524 16.4999 9.50012 16.4999Z" fill="#4CAF50"/>
<path d="M16.9281 7.96976C16.8925 7.71365 16.6678 7.53113 16.4092 7.53113H16.25L10.0671 7.53113C9.7702 7.53113 9.52862 7.77019 9.52551 8.06711L9.50574 9.95266C9.50258 10.254 9.746 10.5 10.0474 10.5H13.7386C13.4428 11.3312 12.91 12.0574 12.206 12.5891L12.2071 12.5884L14.5284 14.5526C14.3641 14.7019 17 12.75 17 9.00001C17 8.65037 16.975 8.30653 16.9281 7.96976Z" fill="#1976D2"/>
</svg>
