<svg width="24" height="24" viewBox="0 0 16 14" fill="none" xmlns="http://www.w3.org/2000/svg">
<g id="vuesax/outline/heart">
<g id="heart">
<path id="Vector" d="M7.99967 13.4333C7.79301 13.4333 7.59301 13.4066 7.42634 13.3467C4.87967 12.4733 0.833008 9.37332 0.833008 4.79332C0.833008 2.45998 2.71967 0.56665 5.03967 0.56665C6.16634 0.56665 7.21967 1.00665 7.99967 1.79332C8.77967 1.00665 9.83301 0.56665 10.9597 0.56665C13.2797 0.56665 15.1663 2.46665 15.1663 4.79332C15.1663 9.37998 11.1197 12.4733 8.57301 13.3467C8.40634 13.4066 8.20634 13.4333 7.99967 13.4333ZM5.03967 1.56665C3.27301 1.56665 1.83301 3.01332 1.83301 4.79332C1.83301 9.34665 6.21301 11.88 7.75301 12.4066C7.87301 12.4466 8.13301 12.4466 8.25301 12.4066C9.78634 11.88 14.173 9.35332 14.173 4.79332C14.173 3.01332 12.733 1.56665 10.9663 1.56665C9.95301 1.56665 9.01301 2.03998 8.40634 2.85998C8.21967 3.11332 7.79301 3.11332 7.60634 2.85998C6.98634 2.03332 6.05301 1.56665 5.03967 1.56665Z" fill="#CACCCE"/>
</g>
</g>
</svg>
