<svg width="16" height="16" viewBox="0 0 16 16" fill="none" xmlns="http://www.w3.org/2000/svg">
<path d="M4.66667 3.33337C2.10303 3.33337 0 5.4364 0 8.00004C0 10.5637 2.10303 12.6667 4.66667 12.6667C6.51666 12.6667 8.05961 11.5432 8.84766 10H10.6667V12H14.6667V10H16V6.00004H15.3333H8.85807C8.11507 4.45042 6.55944 3.33337 4.66667 3.33337ZM4.66667 4.66671C6.18683 4.66671 7.39501 5.61404 7.83724 6.88546L7.99219 7.33337H14.6667V8.66671H13.3333V10.6667H12V8.66671H8.01172L7.84635 9.08988C7.34008 10.3837 6.1094 11.3334 4.66667 11.3334C2.8303 11.3334 1.33333 9.8364 1.33333 8.00004C1.33333 6.16368 2.8303 4.66671 4.66667 4.66671ZM4.66667 6.00004C3.56999 6.00004 2.66667 6.90337 2.66667 8.00004C2.66667 9.09671 3.56999 10 4.66667 10C5.76334 10 6.66667 9.09671 6.66667 8.00004C6.66667 6.90337 5.76334 6.00004 4.66667 6.00004ZM4.66667 7.33337C5.04275 7.33337 5.33333 7.62395 5.33333 8.00004C5.33333 8.37613 5.04275 8.66671 4.66667 8.66671C4.29058 8.66671 4 8.37613 4 8.00004C4 7.62395 4.29058 7.33337 4.66667 7.33337Z" fill="white"/>
</svg>
