<svg width="24" height="24" viewBox="0 0 24 24" fill="none" xmlns="http://www.w3.org/2000/svg">
<g id="Icon">
<path id="Vector" fill-rule="evenodd" clip-rule="evenodd" d="M6.55 5.7C6.32457 5.7 6.10836 5.78955 5.94896 5.94896C5.78955 6.10837 5.7 6.32457 5.7 6.55V18.45C5.7 18.6754 5.78955 18.8916 5.94896 19.051C6.10837 19.2104 6.32457 19.3 6.55 19.3H9.95C10.4194 19.3 10.8 19.6806 10.8 20.15C10.8 20.6194 10.4194 21 9.95 21H6.55C5.8737 21 5.2251 20.7313 4.74688 20.2531C4.26866 19.7749 4 19.1263 4 18.45V6.55C4 5.8737 4.26866 5.2251 4.74688 4.74688C5.2251 4.26866 5.8737 4 6.55 4H9.95C10.4194 4 10.8 4.38056 10.8 4.85C10.8 5.31944 10.4194 5.7 9.95 5.7H6.55ZM15.299 7.64886C15.631 7.31692 16.1691 7.31692 16.5011 7.64886L20.7382 11.8859C20.8999 12.0407 21.0006 12.2586 21.0006 12.5001C21.0006 12.7459 20.8963 12.9673 20.7295 13.1225L16.5011 17.3509C16.1691 17.6829 15.631 17.6829 15.299 17.3509C14.9671 17.019 14.9671 16.4808 15.299 16.1489L18.0977 13.3501H9.95059C9.48114 13.3501 9.10059 12.9696 9.10059 12.5001C9.10059 12.0307 9.48114 11.6501 9.95059 11.6501H18.0982L15.299 8.85094C14.9671 8.519 14.9671 7.98081 15.299 7.64886Z" fill="white" fill-opacity="0.98"/>
</g>
</svg>
