<svg xmlns="http://www.w3.org/2000/svg" xmlns:xlink="http://www.w3.org/1999/xlink" width="100px" viewBox="0 0 120 46">
    <defs>
        <style>
            .cls-1{isolation:isolate;}.cls-2{stroke-miterlimit:10;stroke-width:0.16px;fill:url(#linear-gradient);stroke:url(#linear-gradient-2);}.cls-3{fill:url(#linear-gradient-3);}.cls-4{fill:url(#linear-gradient-4);}.cls-5{fill:url(#linear-gradient-5);}.cls-6{mask:url(#mask);}.cls-10,.cls-11,.cls-12,.cls-7,.cls-8,.cls-9{fill:#fff;mix-blend-mode:hard-light;}.cls-7{opacity:0.14;}.cls-8{opacity:0.16;}.cls-9{opacity:0.13;}.cls-10{opacity:0.11;}.cls-11{opacity:0.12;}.cls-12{opacity:0.09;}.cls-13,.cls-14,.cls-15,.cls-16,.cls-17,.cls-18{opacity:0.89;}.cls-13{fill:url(#radial-gradient);}.cls-14{fill:url(#radial-gradient-2);}.cls-15{fill:url(#radial-gradient-3);}.cls-16{fill:url(#radial-gradient-4);}.cls-17{fill:url(#radial-gradient-5);}.cls-18{fill:url(#radial-gradient-6);}.cls-19{fill:#fcfafa;}
        </style>
        <linearGradient id="linear-gradient" x1="6.03" y1="9.96" x2="32.88" y2="36.81" gradientUnits="userSpaceOnUse">
            <stop offset="0.06" stop-color="#515151"/>
            <stop offset="0.53" stop-color="#a8a8a8"/>
            <stop offset="0.53" stop-color="#a9a9a9"/>
            <stop offset="0.83" stop-color="#e7e7e7"/>
            <stop offset="0.97" stop-color="#fff"/>
        </linearGradient>
        <linearGradient id="linear-gradient-2" x1="5.98" y1="36.87" x2="32.94" y2="9.91" xlink:href="#linear-gradient"/>
        <linearGradient id="linear-gradient-3" x1="10.66" y1="17.19" x2="27.77" y2="17.19"
                        gradientUnits="userSpaceOnUse">
            <stop offset="0.03" stop-color="#ff6d00"/>
            <stop offset="0.13" stop-color="#ff5700"/>
            <stop offset="0.26" stop-color="#f30"/>
            <stop offset="0.49" stop-color="#fb0606"/>
            <stop offset="0.74" stop-color="#ff0098"/>
            <stop offset="0.97" stop-color="#e700bb"/>
        </linearGradient>
        <linearGradient id="linear-gradient-4" x1="20.69" y1="32.8" x2="28.24" y2="20.15"
                        gradientUnits="userSpaceOnUse">
            <stop offset="0.03" stop-color="#00d1f3"/>
            <stop offset="0.12" stop-color="#00bbf9"/>
            <stop offset="0.19" stop-color="#00a3ff"/>
            <stop offset="0.24" stop-color="#0197f7"/>
            <stop offset="0.38" stop-color="#0476e0"/>
            <stop offset="0.46" stop-color="#056ad7"/>
            <stop offset="0.61" stop-color="#4930c7"/>
            <stop offset="0.72" stop-color="#7906bb"/>
            <stop offset="0.97" stop-color="#cb00cb"/>
        </linearGradient>
        <linearGradient id="linear-gradient-5" x1="17.56" y1="32.63" x2="10.43" y2="19.39"
                        gradientUnits="userSpaceOnUse">
            <stop offset="0" stop-color="#00eed1"/>
            <stop offset="0.03" stop-color="#00eeca"/>
            <stop offset="0.06" stop-color="#01eeb7"/>
            <stop offset="0.11" stop-color="#03ed97"/>
            <stop offset="0.16" stop-color="#06ec6c"/>
            <stop offset="0.18" stop-color="#07ec54"/>
            <stop offset="0.26" stop-color="#5cf03d"/>
            <stop offset="0.34" stop-color="#acf427"/>
            <stop offset="0.38" stop-color="#ccf61e"/>
            <stop offset="0.39" stop-color="#cdf61c"/>
            <stop offset="0.48" stop-color="#dffd08"/>
            <stop offset="0.55" stop-color="#e6ff00"/>
            <stop offset="0.64" stop-color="#f3de00"/>
            <stop offset="0.74" stop-color="#ffc100"/>
            <stop offset="0.87" stop-color="#ff8e00"/>
            <stop offset="0.93" stop-color="#ff7900"/>
        </linearGradient>
        <mask id="mask" x="10.66" y="-8150.94" width="17.11" height="32766" maskUnits="userSpaceOnUse"/>
        <radialGradient id="radial-gradient" cx="-972.88" cy="-5014.98" r="2.65"
                        gradientTransform="matrix(-1.27, 0.72, -0.05, -0.08, -1456.61, 340.03)"
                        gradientUnits="userSpaceOnUse">
            <stop offset="0" stop-color="#fff"/>
            <stop offset="0.66" stop-color="#fff" stop-opacity="0.33"/>
            <stop offset="1" stop-color="#fff" stop-opacity="0"/>
        </radialGradient>
        <radialGradient id="radial-gradient-2" cx="-985.57" cy="-12272.14" r="2.65"
                        gradientTransform="matrix(0, 1.46, -0.09, 0, -1101.11, 1522.16)" xlink:href="#radial-gradient"/>
        <radialGradient id="radial-gradient-3" cx="-981.53" cy="-12352.18" r="2.65"
                        gradientTransform="matrix(0.02, 1.46, -0.09, 0.01, -1086.84, 1534.19)"
                        xlink:href="#radial-gradient"/>
        <radialGradient id="radial-gradient-4" cx="-972.81" cy="-4997.2" r="2.65" xlink:href="#radial-gradient"/>
        <radialGradient id="radial-gradient-5" cx="-686.22" cy="-2319.07" r="2.65"
                        gradientTransform="matrix(1.27, 0.72, 0.05, -0.08, 999.5, 340.03)"
                        xlink:href="#radial-gradient"/>
        <radialGradient id="radial-gradient-6" cx="-687.22" cy="-2303.89" r="2.65"
                        gradientTransform="matrix(1.33, 0.76, 0.05, -0.08, 1042.32, 365.87)"
                        xlink:href="#radial-gradient"/>
    </defs>
    <title>personia new33</title>
    <g class="cls-1">
        <g id="Layer_2" data-name="Layer 2">
            <path class="cls-2"
                  d="M35.14,12.38l-14-8.07a3.37,3.37,0,0,0-3.39,0l-14,8.07a3.38,3.38,0,0,0-1.69,2.94V31.46A3.4,3.4,0,0,0,3.78,34.4l14,8.07a3.37,3.37,0,0,0,3.39,0l14-8.07a3.42,3.42,0,0,0,1.69-2.94V15.32A3.41,3.41,0,0,0,35.14,12.38ZM31.69,31.93,20.87,38.17a2.73,2.73,0,0,1-2.76,0L7.27,31.89a2.78,2.78,0,0,1-1.38-2.38V17a2.74,2.74,0,0,1,1.38-2.39L18.07,8.34a2.77,2.77,0,0,1,2.76,0l10.84,6.28A2.76,2.76,0,0,1,33.05,17l0,12.53A2.77,2.77,0,0,1,31.69,31.93Z"/>
            <path class="cls-3"
                  d="M27.47,17.71l-7.82,4.51a.85.85,0,0,1-.87,0L11,17.71a.59.59,0,0,1,0-1l7.82-4.52a.9.9,0,0,1,.87,0l7.82,4.52A.59.59,0,0,1,27.47,17.71Z"/>
            <path class="cls-4"
                  d="M29.23,19.51v8.73a1,1,0,0,1-.49.84l-7.69,4.44a.64.64,0,0,1-1-.55V24.08a1,1,0,0,1,.48-.84l7.56-4.37A.73.73,0,0,1,29.23,19.51Z"/>
            <path class="cls-5"
                  d="M18.66,24.09V33a.62.62,0,0,1-.93.54L10,29.09a1,1,0,0,1-.48-.83v-8.9a.64.64,0,0,1,1-.55l7.7,4.45A1,1,0,0,1,18.66,24.09Z"/>
            <g class="cls-6">
                <path class="cls-3"
                      d="M27.47,17.71l-7.82,4.51a.85.85,0,0,1-.87,0L11,17.71a.59.59,0,0,1,0-1l7.82-4.52a.9.9,0,0,1,.87,0l7.82,4.52A.59.59,0,0,1,27.47,17.71Z"/>
            </g>
            <path class="cls-7"
                  d="M18.66,33v-.68a6.85,6.85,0,0,0-6.8-6,6.75,6.75,0,0,0-2.35.41v1.55a1,1,0,0,0,.48.83l7.74,4.47A.62.62,0,0,0,18.66,33Z"/>
            <path class="cls-7"
                  d="M18.79,12.17,11,16.69a.58.58,0,0,0,0,1l3,1.75h.15a6.28,6.28,0,0,0,6.28-6.28,5.68,5.68,0,0,0,0-.59l-.73-.42A.85.85,0,0,0,18.79,12.17Z"/>
            <path class="cls-8"
                  d="M29.22,19.51a.73.73,0,0,0-1.1-.64l-4.5,2.6a5.06,5.06,0,0,0-.39,2,4.94,4.94,0,0,0,4.95,4.95,4.48,4.48,0,0,0,1-.11V19.51Z"/>
            <path class="cls-7"
                  d="M10.09,18.74a.62.62,0,0,0-.57.63v8.9a1,1,0,0,0,.48.83l1.43.83a6.84,6.84,0,0,0-1.34-11.19Z"/>
            <path class="cls-8"
                  d="M9.53,19.33v8.89a1,1,0,0,0,.48.84l4.07,2.35a7.41,7.41,0,0,0,.64-10.19l-4.24-2.44A.63.63,0,0,0,9.53,19.33Z"/>
            <path class="cls-9" d="M20.59,12.7l-.93-.54a.87.87,0,0,0-.88,0l-7.2,4.16a5.37,5.37,0,0,0,9-3.62Z"/>
            <path class="cls-10"
                  d="M27.47,16.65l-7.82-4.51a.88.88,0,0,0-.79,0,5.66,5.66,0,0,0,7.94,6l.67-.39A.59.59,0,0,0,27.47,16.65Z"/>
            <path class="cls-11"
                  d="M10.35,18.76a.63.63,0,0,0-.83.6v6a4.1,4.1,0,0,0,2.14-3.6A4.05,4.05,0,0,0,10.35,18.76Z"/>
            <path class="cls-8"
                  d="M16.27,15.84a4.34,4.34,0,0,0,4.19-3.2l-.81-.47a.85.85,0,0,0-.87,0l-5,2.88A4.31,4.31,0,0,0,16.27,15.84Z"/>
            <path class="cls-11"
                  d="M29.23,19.51a.74.74,0,0,0-1-.7l-.17.08-.6.35a5.11,5.11,0,0,0,1.7,9.22.89.89,0,0,0,0-.22Z"/>
            <path class="cls-12"
                  d="M26.22,25.92a6.19,6.19,0,0,0-6.13,5.33V33a1.55,1.55,0,0,0,0,.21.63.63,0,0,0,.92.35l7.7-4.44a1,1,0,0,0,.49-.84V26.71A6.21,6.21,0,0,0,26.22,25.92Z"/>
            <path class="cls-11" d="M29.23,19.5a4.5,4.5,0,0,0,0,7.85V19.51Z"/>
            <path class="cls-11"
                  d="M28.13,18.88,28,19a3.52,3.52,0,0,0-.55,1.9,3.57,3.57,0,0,0,1.77,3.08V19.51A.73.73,0,0,0,28.13,18.88Z"/>
            <path class="cls-13"
                  d="M21.28,23a15.77,15.77,0,0,1,3.23-2.13A15.41,15.41,0,0,1,28,19.15a15.89,15.89,0,0,1-3.24,2.12A16.09,16.09,0,0,1,21.28,23Z"/>
            <path class="cls-14"
                  d="M20.22,32.35A15.67,15.67,0,0,1,20,28.48a16.13,16.13,0,0,1,.24-3.88,15.19,15.19,0,0,1,.24,3.86A15.36,15.36,0,0,1,20.22,32.35Z"/>
            <path class="cls-15"
                  d="M18.55,32.55a15.94,15.94,0,0,1-.29-3.86,16.37,16.37,0,0,1,.18-3.89,15.14,15.14,0,0,1,.3,3.86A15.47,15.47,0,0,1,18.55,32.55Z"/>
            <path class="cls-16"
                  d="M20.32,21.67a15.29,15.29,0,0,1,3.23-2.12A16.34,16.34,0,0,1,27,17.83,15.54,15.54,0,0,1,23.81,20,16,16,0,0,1,20.32,21.67Z"/>
            <path class="cls-17"
                  d="M17.84,23.14A15.63,15.63,0,0,0,14.61,21a16,16,0,0,0-3.5-1.72,15.68,15.68,0,0,0,3.24,2.13A15.46,15.46,0,0,0,17.84,23.14Z"/>
            <path class="cls-18"
                  d="M18.7,22.08a17.13,17.13,0,0,0-3.4-2.22,17.06,17.06,0,0,0-3.65-1.81A17.77,17.77,0,0,0,15,20.27,17.86,17.86,0,0,0,18.7,22.08Z"/>
            <path class="cls-19"
                  d="M42.69,30.31v-14h5.59a6.53,6.53,0,0,1,4.17,1.19,4,4,0,0,1,1.48,3.31,3.48,3.48,0,0,1-1.19,2.77,4.7,4.7,0,0,1-3.2,1h-3v5.68ZM46.5,18.07V22.9h.88a3.35,3.35,0,0,0,2.07-.53,2,2,0,0,0,.66-1.66,2.5,2.5,0,0,0-.77-1.91,2.86,2.86,0,0,0-2.05-.73Z"/>
            <path class="cls-19"
                  d="M57.34,30.31a2,2,0,0,1-1.52-.48,2.35,2.35,0,0,1-.45-1.64v-5a2.4,2.4,0,0,1,.45-1.65A2,2,0,0,1,57.34,21h4.3v1.39H59.35a1,1,0,0,0-.76.21,1.23,1.23,0,0,0-.2.82V25H61.3v1.39H58.39v1.55a1.24,1.24,0,0,0,.19.8,1.1,1.1,0,0,0,.77.2h2.44v1.39Z"/>
            <path class="cls-19"
                  d="M64.17,30.31V21h4a4.8,4.8,0,0,1,2.84.7,2.38,2.38,0,0,1,1,2.06,2.46,2.46,0,0,1-.43,1.51,2.32,2.32,0,0,1-1.3.83L73,30.31H69.48l-2.1-4.37v-.17a2.06,2.06,0,0,0,1.27-.56,1.74,1.74,0,0,0,.4-1.23,1.68,1.68,0,0,0-.42-1.24,1.75,1.75,0,0,0-1.27-.42H67v8Z"/>
            <path class="cls-19"
                  d="M74.14,30.31V28.92h2.47a2.2,2.2,0,0,0,1.2-.24.89.89,0,0,0,.34-.78c0-.48-.47-.86-1.39-1.13l-.66-.2a4.41,4.41,0,0,1-1.88-1,2.19,2.19,0,0,1-.5-1.53,2.66,2.66,0,0,1,1-2.22A4.36,4.36,0,0,1,77.45,21h2.41v1.39H77.77a1.51,1.51,0,0,0-.8.18.56.56,0,0,0-.3.51c0,.38.41.7,1.22.95l.4.13a4.58,4.58,0,0,1,2,1.1A2.6,2.6,0,0,1,80.82,27a3.1,3.1,0,0,1-.95,2.4,3.79,3.79,0,0,1-2.64.87Z"/>
            <path class="cls-19"
                  d="M86.84,30.65a4.38,4.38,0,0,1-3.39-1.48,5.28,5.28,0,0,1-1.36-3.72A4.62,4.62,0,0,1,83.38,22a4.7,4.7,0,0,1,3.46-1.28,4.36,4.36,0,0,1,3.38,1.48A5.33,5.33,0,0,1,91.58,26a4.59,4.59,0,0,1-1.28,3.42A4.7,4.7,0,0,1,86.84,30.65Zm1.48-4.88a8.13,8.13,0,0,0-.38-2.84c-.26-.63-.64-.95-1.16-.95s-.84.3-1.08.9a8.18,8.18,0,0,0-.35,2.74,8,8,0,0,0,.39,2.86,1.25,1.25,0,0,0,1.15.95c.48,0,.83-.3,1.07-.91A7.88,7.88,0,0,0,88.32,25.77Z"/>
            <path class="cls-19"
                  d="M95,24.27v6h-1.5V22.54a2.1,2.1,0,0,1,.37-1.36,1.42,1.42,0,0,1,1.14-.43,1.89,1.89,0,0,1,1.14.36,4.2,4.2,0,0,1,1,1.21l2.07,3.37V21h1.5v8.07a2.22,2.22,0,0,1-.25,1.19.91.91,0,0,1-.81.35,1.15,1.15,0,0,1-.76-.28,4.67,4.67,0,0,1-.85-1.06Z"/>
            <path class="cls-19"
                  d="M103.43,17.23a1.53,1.53,0,0,1,.47-1.12,1.58,1.58,0,1,1,0,2.24A1.53,1.53,0,0,1,103.43,17.23Zm.06,13.08V21h3v9.27Z"/>
            <path class="cls-19"
                  d="M108.17,30.31l2.41-7.56a4,4,0,0,1,.81-1.57,1.69,1.69,0,0,1,1.23-.43,1.56,1.56,0,0,1,1.13.38,3.63,3.63,0,0,1,.75,1.48l2.5,7.7h-3.17l-.51-1.69h-3.08l-.5,1.69Zm2.45-3h2.31l-1.11-4Z"/>
        </g>
    </g>
</svg>