<svg xmlns="http://www.w3.org/2000/svg" xmlns:xlink="http://www.w3.org/1999/xlink" viewBox="0 0 179.44 60">
    <defs>
        <style>.cls-1{isolation:isolate;}.cls-2{font-size:31.69px;font-family:Exotic350BT-Bold, Exotc350 Bd
            BT;font-weight:700;}.cls-10,.cls-11,.cls-12,.cls-13,.cls-2,.cls-8,.cls-9{fill:#fff;}.cls-3{stroke-miterlimit:10;stroke-width:0.24px;fill:url(#linear-gradient);stroke:url(#linear-gradient-2);}.cls-4{fill:url(#linear-gradient-3);}.cls-5{fill:url(#linear-gradient-4);}.cls-6{fill:url(#linear-gradient-5);}.cls-7{mask:url(#mask);}.cls-8{opacity:0.14;}.cls-10,.cls-11,.cls-12,.cls-13,.cls-8,.cls-9{mix-blend-mode:hard-light;}.cls-9{opacity:0.16;}.cls-10{opacity:0.13;}.cls-11{opacity:0.11;}.cls-12{opacity:0.12;}.cls-13{opacity:0.09;}.cls-14,.cls-15,.cls-16,.cls-17,.cls-18,.cls-19{opacity:0.89;}.cls-14{fill:url(#radial-gradient);}.cls-15{fill:url(#radial-gradient-2);}.cls-16{fill:url(#radial-gradient-3);}.cls-17{fill:url(#radial-gradient-4);}.cls-18{fill:url(#radial-gradient-5);}.cls-19{fill:url(#radial-gradient-6);}
        </style>
        <linearGradient id="linear-gradient" x1="10.43" y1="10.15" x2="50.31" y2="50.04" gradientUnits="userSpaceOnUse">
            <stop offset="0.06" stop-color="#515151"/>
            <stop offset="0.53" stop-color="#a8a8a8"/>
            <stop offset="0.53" stop-color="#a9a9a9"/>
            <stop offset="0.83" stop-color="#e7e7e7"/>
            <stop offset="0.97" stop-color="#fff"/>
        </linearGradient>
        <linearGradient id="linear-gradient-2" x1="10.34" y1="50.12" x2="50.4" y2="10.07"
                        xlink:href="#linear-gradient"/>
        <linearGradient id="linear-gradient-3" x1="17.3" y1="20.89" x2="42.71" y2="20.89"
                        gradientUnits="userSpaceOnUse">
            <stop offset="0.03" stop-color="#ff6d00"/>
            <stop offset="0.13" stop-color="#ff5700"/>
            <stop offset="0.26" stop-color="#f30"/>
            <stop offset="0.49" stop-color="#fb0606"/>
            <stop offset="0.74" stop-color="#ff0098"/>
            <stop offset="0.97" stop-color="#e700bb"/>
        </linearGradient>
        <linearGradient id="linear-gradient-4" x1="32.2" y1="44.08" x2="43.42" y2="25.28"
                        gradientUnits="userSpaceOnUse">
            <stop offset="0.03" stop-color="#00d1f3"/>
            <stop offset="0.12" stop-color="#00bbf9"/>
            <stop offset="0.19" stop-color="#00a3ff"/>
            <stop offset="0.24" stop-color="#0197f7"/>
            <stop offset="0.38" stop-color="#0476e0"/>
            <stop offset="0.46" stop-color="#056ad7"/>
            <stop offset="0.61" stop-color="#4930c7"/>
            <stop offset="0.72" stop-color="#7906bb"/>
            <stop offset="0.97" stop-color="#cb00cb"/>
        </linearGradient>
        <linearGradient id="linear-gradient-5" x1="27.56" y1="43.83" x2="16.95" y2="24.16"
                        gradientUnits="userSpaceOnUse">
            <stop offset="0" stop-color="#00eed1"/>
            <stop offset="0.03" stop-color="#00eeca"/>
            <stop offset="0.06" stop-color="#01eeb7"/>
            <stop offset="0.11" stop-color="#03ed97"/>
            <stop offset="0.16" stop-color="#06ec6c"/>
            <stop offset="0.18" stop-color="#07ec54"/>
            <stop offset="0.26" stop-color="#5cf03d"/>
            <stop offset="0.34" stop-color="#acf427"/>
            <stop offset="0.38" stop-color="#ccf61e"/>
            <stop offset="0.39" stop-color="#cdf61c"/>
            <stop offset="0.48" stop-color="#dffd08"/>
            <stop offset="0.55" stop-color="#e6ff00"/>
            <stop offset="0.64" stop-color="#f3de00"/>
            <stop offset="0.74" stop-color="#ffc100"/>
            <stop offset="0.87" stop-color="#ff8e00"/>
            <stop offset="0.93" stop-color="#ff7900"/>
        </linearGradient>
        <mask id="mask" x="17.3" y="-8158.99" width="25.41" height="60" maskUnits="userSpaceOnUse"/>
        <radialGradient id="radial-gradient" cx="-545.92" cy="-3555.34" r="3.94"
                        gradientTransform="matrix(-1.27, 0.72, -0.05, -0.08, -829.48, 148.54)"
                        gradientUnits="userSpaceOnUse">
            <stop offset="0" stop-color="#fff"/>
            <stop offset="0.66" stop-color="#fff" stop-opacity="0.33"/>
            <stop offset="1" stop-color="#fff" stop-opacity="0"/>
        </radialGradient>
        <radialGradient id="radial-gradient-2" cx="-717.21" cy="-9360.55" r="3.94"
                        gradientTransform="matrix(0, 1.46, -0.09, 0, -823.72, 1126.47)" xlink:href="#radial-gradient"/>
        <radialGradient id="radial-gradient-3" cx="-715.96" cy="-9431.47" r="3.94"
                        gradientTransform="matrix(0.02, 1.46, -0.09, 0.01, -815.73, 1138.53)"
                        xlink:href="#radial-gradient"/>
        <radialGradient id="radial-gradient-4" cx="-545.81" cy="-3528.93" r="3.94" xlink:href="#radial-gradient"/>
        <radialGradient id="radial-gradient-5" cx="-565.54" cy="-3743.02" r="3.94"
                        gradientTransform="matrix(1.27, 0.72, 0.05, -0.08, 924.65, 148.54)"
                        xlink:href="#radial-gradient"/>
        <radialGradient id="radial-gradient-6" cx="-559.31" cy="-3723.43" r="3.94"
                        gradientTransform="matrix(1.33, 0.76, 0.05, -0.08, 950.84, 164.34)"
                        xlink:href="#radial-gradient"/>
    </defs>
    <title>personia final solid white 60-05</title>
    <g class="cls-1">
        <g id="Layer_1">
            <text class="cls-2" transform="translate(63.65 40.49)">Personia</text>
        </g>
        <g id="Layer_2">
            <path class="cls-3"
                  d="M53.66,13.74l-20.78-12a5,5,0,0,0-5,0l-20.77,12a5,5,0,0,0-2.52,4.37v24a5,5,0,0,0,2.52,4.36l20.77,12a5,5,0,0,0,5,0l20.78-12a5,5,0,0,0,2.51-4.36v-24A5.06,5.06,0,0,0,53.66,13.74ZM48.53,42.79,32.47,52.06a4.13,4.13,0,0,1-4.11,0l-16.1-9.33a4.12,4.12,0,0,1-2-3.54l0-18.61A4.1,4.1,0,0,1,12.24,17L28.3,7.75a4.08,4.08,0,0,1,4.11,0l16.1,9.32a4.11,4.11,0,0,1,2.05,3.55l0,18.61A4.14,4.14,0,0,1,48.53,42.79Z"/>
            <path class="cls-4"
                  d="M42.27,21.65,30.65,28.36a1.29,1.29,0,0,1-1.29,0L17.74,21.65a.87.87,0,0,1,0-1.52l11.62-6.71a1.29,1.29,0,0,1,1.29,0l11.62,6.71A.87.87,0,0,1,42.27,21.65Z"/>
            <path class="cls-5"
                  d="M44.88,24.33v13a1.44,1.44,0,0,1-.72,1.25l-11.43,6.6a1,1,0,0,1-1.43-.83V31.12A1.47,1.47,0,0,1,32,29.87l11.23-6.48A1.08,1.08,0,0,1,44.88,24.33Z"/>
            <path class="cls-6"
                  d="M29.18,31.14V44.4a.92.92,0,0,1-1.38.8L16.31,38.57a1.44,1.44,0,0,1-.72-1.24V24.11A1,1,0,0,1,17,23.29L28.46,29.9A1.45,1.45,0,0,1,29.18,31.14Z"/>
            <g class="cls-7">
                <path class="cls-4"
                      d="M42.27,21.65,30.65,28.36a1.29,1.29,0,0,1-1.29,0L17.74,21.65a.87.87,0,0,1,0-1.52l11.62-6.71a1.29,1.29,0,0,1,1.29,0l11.62,6.71A.87.87,0,0,1,42.27,21.65Z"/>
            </g>
            <path class="cls-8"
                  d="M29.18,44.4v-1A10.19,10.19,0,0,0,15.59,35v2.3a1.44,1.44,0,0,0,.72,1.24L27.8,45.2A.92.92,0,0,0,29.18,44.4Z"/>
            <path class="cls-8"
                  d="M29.38,13.43,17.76,20.14a.87.87,0,0,0,0,1.52l4.49,2.59h.22a9.33,9.33,0,0,0,9.32-9.33,8.64,8.64,0,0,0,0-.88l-1.08-.62A1.29,1.29,0,0,0,29.38,13.43Z"/>
            <path class="cls-9"
                  d="M44.87,24.33a1.09,1.09,0,0,0-1.64-.94l-6.67,3.85A7.35,7.35,0,0,0,43.33,37.5a7.19,7.19,0,0,0,1.54-.16v-13Z"/>
            <path class="cls-8"
                  d="M16.45,23.19a.94.94,0,0,0-.85.94V37.34a1.43,1.43,0,0,0,.72,1.25l2.13,1.23a10.17,10.17,0,0,0-2-16.63Z"/>
            <path class="cls-9"
                  d="M15.62,24.07V37.28a1.46,1.46,0,0,0,.71,1.25L22.39,42a11,11,0,0,0,.95-15.14L17,23.24A1,1,0,0,0,15.62,24.07Z"/>
            <path class="cls-10" d="M32.05,14.21l-1.39-.8a1.29,1.29,0,0,0-1.29,0l-10.7,6.18a8,8,0,0,0,13.38-5.38Z"/>
            <path class="cls-11"
                  d="M42.27,20.09l-11.62-6.7a1.29,1.29,0,0,0-1.18-.06,8.4,8.4,0,0,0,11.8,8.86l1-.57A.88.88,0,0,0,42.27,20.09Z"/>
            <path class="cls-12" d="M16.84,23.22a.94.94,0,0,0-1.24.9V33a6.05,6.05,0,0,0,1.24-9.77Z"/>
            <path class="cls-9"
                  d="M25.64,18.88a6.44,6.44,0,0,0,6.22-4.75l-1.21-.7a1.29,1.29,0,0,0-1.29,0l-7.42,4.29A6.45,6.45,0,0,0,25.64,18.88Z"/>
            <path class="cls-12"
                  d="M44.88,24.33a1.09,1.09,0,0,0-1.42-1l-.25.12-.9.52a7.59,7.59,0,0,0,2.53,13.69,1.12,1.12,0,0,0,0-.32Z"/>
            <path class="cls-13"
                  d="M40.41,33.86a9.19,9.19,0,0,0-9.1,7.91v2.54c0,.11,0,.21.05.31a1,1,0,0,0,1.38.53l11.43-6.6a1.45,1.45,0,0,0,.73-1.25V35A9.1,9.1,0,0,0,40.41,33.86Z"/>
            <path class="cls-12" d="M44.88,24.32a6.69,6.69,0,0,0,0,11.66V24.32Z"/>
            <path class="cls-12"
                  d="M43.25,23.4l-.17.1a5.21,5.21,0,0,0-.82,2.83,5.27,5.27,0,0,0,2.63,4.57V24.34A1.09,1.09,0,0,0,43.25,23.4Z"/>
            <path class="cls-14"
                  d="M33.08,29.5c-.11-.17,2-1.58,4.8-3.15S43,23.63,43.07,23.8s-2,1.58-4.8,3.15S33.18,29.67,33.08,29.5Z"/>
            <path class="cls-15"
                  d="M31.51,43.4c-.2,0-.36-2.56-.36-5.73s.17-5.77.37-5.78.36,2.56.35,5.74S31.7,43.39,31.51,43.4Z"/>
            <path class="cls-16"
                  d="M29,43.71c-.19,0-.39-2.56-.44-5.73s.08-5.77.28-5.78.4,2.55.44,5.73S29.22,43.69,29,43.71Z"/>
            <path class="cls-17"
                  d="M31.64,27.55c-.1-.17,2-1.58,4.81-3.16s5.08-2.72,5.19-2.55-2,1.58-4.81,3.16S31.75,27.71,31.64,27.55Z"/>
            <path class="cls-18"
                  d="M28,29.73c.11-.17-2-1.58-4.81-3.15S18.08,23.86,18,24s2.05,1.58,4.81,3.15S27.86,29.9,28,29.73Z"/>
            <path class="cls-19"
                  d="M29.24,28.15c.11-.16-2.15-1.64-5-3.3S18.88,22,18.77,22.16s2.15,1.65,5,3.3S29.13,28.32,29.24,28.15Z"/>
        </g>
    </g>
</svg>