<svg width="24" height="24" viewBox="0 0 12 12" fill="none" xmlns="http://www.w3.org/2000/svg">
<g clip-path="url(#clip0_750_4009)">
<path d="M4.995 11.39C4.69499 11.39 4.41 11.24 4.215 10.975L3.61501 10.175C3.61501 10.18 3.59 10.165 3.58 10.165H3.395C1.685 10.165 0.625 9.7 0.625 7.395V5.395C0.625 3.29 1.91001 2.74 2.99001 2.645C3.11001 2.63 3.25 2.625 3.395 2.625H6.595C8.405 2.625 9.36501 3.585 9.36501 5.395V7.395C9.36501 7.54 9.36 7.68 9.34 7.815C9.25 8.88 8.7 10.165 6.595 10.165H6.395L5.77499 10.975C5.57999 11.24 5.295 11.39 4.995 11.39ZM3.395 3.375C3.28 3.375 3.17 3.38 3.065 3.39C1.905 3.49 1.375 4.125 1.375 5.395V7.395C1.375 9.11 1.905 9.41499 3.395 9.41499H3.595C3.82 9.41499 4.075 9.54 4.215 9.72L4.815 10.525C4.925 10.675 5.065 10.675 5.175 10.525L5.77499 9.72501C5.91999 9.53001 6.15 9.41499 6.395 9.41499H6.595C7.865 9.41499 8.5 8.88001 8.595 7.74001C8.61 7.62001 8.61501 7.51 8.61501 7.395V5.395C8.61501 4 7.99 3.375 6.595 3.375H3.395Z" fill="white" fill-opacity="0.85"/>
<path d="M4.99512 7.095C4.71512 7.095 4.49512 6.87 4.49512 6.595C4.49512 6.32 4.72012 6.095 4.99512 6.095C5.27012 6.095 5.49512 6.32 5.49512 6.595C5.49512 6.87 5.27512 7.095 4.99512 7.095Z" fill="white"/>
<path d="M6.59473 7.095C6.31473 7.095 6.09473 6.87 6.09473 6.595C6.09473 6.32 6.31973 6.095 6.59473 6.095C6.86973 6.095 7.09473 6.32 7.09473 6.595C7.09473 6.87 6.86973 7.095 6.59473 7.095Z" fill="white"/>
<path d="M3.40039 7.095C3.12039 7.095 2.90039 6.87 2.90039 6.595C2.90039 6.32 3.12539 6.095 3.40039 6.095C3.67539 6.095 3.90039 6.32 3.90039 6.595C3.90039 6.87 3.67539 7.095 3.40039 7.095Z" fill="white"/>
<path d="M8.96982 8.145C8.86982 8.145 8.76982 8.105 8.69982 8.03C8.61982 7.95 8.58483 7.83501 8.59983 7.72501C8.61483 7.62001 8.61982 7.51 8.61982 7.395V5.395C8.61982 4 7.99483 3.375 6.59983 3.375H3.39982C3.28482 3.375 3.17483 3.38 3.06983 3.39C2.95983 3.405 2.84482 3.36499 2.76482 3.28999C2.68482 3.20999 2.63982 3.10001 2.64982 2.99001C2.73982 1.91001 3.29482 0.625 5.39982 0.625H8.59983C10.4098 0.625 11.3698 1.585 11.3698 3.395V5.395C11.3698 7.5 10.0848 8.05 9.00483 8.145C8.98983 8.145 8.97982 8.145 8.96982 8.145ZM3.45983 2.625H6.59482C8.40482 2.625 9.36483 3.585 9.36483 5.395V7.33C10.2148 7.12 10.6148 6.495 10.6148 5.395V3.395C10.6148 2 9.98982 1.375 8.59482 1.375H5.39483C4.29483 1.375 3.67483 1.775 3.45983 2.625Z" fill="white"/>
</g>
<defs>
<clipPath id="clip0_750_4009">
<rect width="12" height="12" fill="white"/>
</clipPath>
</defs>
</svg>
