<svg width="18" height="18" viewBox="0 0 18 18" fill="none" xmlns="http://www.w3.org/2000/svg">
<path d="M15.4857 2.00568L9.86426 6.18082L10.9038 3.71754L15.4857 2.00568Z" fill="#F6851B" stroke="#E2761B" stroke-width="0.0753296" stroke-linecap="round" stroke-linejoin="round"/>
<path d="M2.5083 2.00568L8.08457 6.22037L7.09587 3.71754L2.5083 2.00568Z" fill="#E4761B" stroke="#E4761B" stroke-width="0.0753296" stroke-linecap="round" stroke-linejoin="round"/>
<path d="M13.463 11.6837L11.9658 13.9774L15.1692 14.8588L16.0901 11.7345L13.463 11.6837Z" fill="#E4761B" stroke="#E4761B" stroke-width="0.0753296" stroke-linecap="round" stroke-linejoin="round"/>
<path d="M1.91504 11.7345L2.83029 14.8588L6.03368 13.9774L4.53651 11.6837L1.91504 11.7345Z" fill="#E4761B" stroke="#E4761B" stroke-width="0.0753296" stroke-linecap="round" stroke-linejoin="round"/>
<path d="M5.8531 7.80796L4.96045 9.15825L8.14124 9.29949L8.02825 5.88141L5.8531 7.80796Z" fill="#E4761B" stroke="#E4761B" stroke-width="0.0753296" stroke-linecap="round" stroke-linejoin="round"/>
<path d="M12.1411 7.80796L9.9377 5.84186L9.86426 9.29948L13.0394 9.15824L12.1411 7.80796Z" fill="#E4761B" stroke="#E4761B" stroke-width="0.0753296" stroke-linecap="round" stroke-linejoin="round"/>
<path d="M6.03369 13.9774L7.9433 13.0452L6.29358 11.7571L6.03369 13.9774Z" fill="#E4761B" stroke="#E4761B" stroke-width="0.0753296" stroke-linecap="round" stroke-linejoin="round"/>
<path d="M10.0508 13.0452L11.966 13.9774L11.7005 11.7571L10.0508 13.0452Z" fill="#E4761B" stroke="#E4761B" stroke-width="0.0753296" stroke-linecap="round" stroke-linejoin="round"/>
<path d="M11.966 13.9774L10.0508 13.0452L10.2033 14.2938L10.1864 14.8192L11.966 13.9774Z" fill="#D7C1B3" stroke="#D7C1B3" stroke-width="0.0753296" stroke-linecap="round" stroke-linejoin="round"/>
<path d="M6.03369 13.9774L7.81335 14.8192L7.80205 14.2938L7.9433 13.0452L6.03369 13.9774Z" fill="#D7C1B3" stroke="#D7C1B3" stroke-width="0.0753296" stroke-linecap="round" stroke-linejoin="round"/>
<path d="M7.84176 10.9322L6.24854 10.4633L7.37283 9.94916L7.84176 10.9322Z" fill="#233447" stroke="#233447" stroke-width="0.0753296" stroke-linecap="round" stroke-linejoin="round"/>
<path d="M10.1523 10.9322L10.6213 9.94916L11.7512 10.4633L10.1523 10.9322Z" fill="#233447" stroke="#233447" stroke-width="0.0753296" stroke-linecap="round" stroke-linejoin="round"/>
<path d="M6.0338 13.9774L6.30498 11.6837L4.53662 11.7345L6.0338 13.9774Z" fill="#CD6116" stroke="#CD6116" stroke-width="0.0753296" stroke-linecap="round" stroke-linejoin="round"/>
<path d="M11.6948 11.6837L11.966 13.9774L13.4632 11.7345L11.6948 11.6837Z" fill="#CD6116" stroke="#CD6116" stroke-width="0.0753296" stroke-linecap="round" stroke-linejoin="round"/>
<path d="M13.0394 9.1582L9.86426 9.29945L10.158 10.9322L10.627 9.94916L11.7569 10.4633L13.0394 9.1582Z" fill="#CD6116" stroke="#CD6116" stroke-width="0.0753296" stroke-linecap="round" stroke-linejoin="round"/>
<path d="M6.24858 10.4633L7.37853 9.94916L7.84181 10.9322L8.14124 9.29945L4.96045 9.1582L6.24858 10.4633Z" fill="#CD6116" stroke="#CD6116" stroke-width="0.0753296" stroke-linecap="round" stroke-linejoin="round"/>
<path d="M4.96045 9.1582L6.29378 11.7571L6.24858 10.4633L4.96045 9.1582Z" fill="#E4751F" stroke="#E4751F" stroke-width="0.0753296" stroke-linecap="round" stroke-linejoin="round"/>
<path d="M11.7572 10.4633L11.7007 11.7571L13.0397 9.1582L11.7572 10.4633Z" fill="#E4751F" stroke="#E4751F" stroke-width="0.0753296" stroke-linecap="round" stroke-linejoin="round"/>
<path d="M8.14123 9.29944L7.8418 10.9322L8.21468 12.8588L8.29942 10.322L8.14123 9.29944Z" fill="#E4751F" stroke="#E4751F" stroke-width="0.0753296" stroke-linecap="round" stroke-linejoin="round"/>
<path d="M9.86446 9.29944L9.71191 10.3164L9.77971 12.8588L10.1582 10.9322L9.86446 9.29944Z" fill="#E4751F" stroke="#E4751F" stroke-width="0.0753296" stroke-linecap="round" stroke-linejoin="round"/>
<path d="M10.1583 10.9322L9.77979 12.8587L10.051 13.0452L11.7007 11.757L11.7572 10.4633L10.1583 10.9322Z" fill="#F6851B" stroke="#F6851B" stroke-width="0.0753296" stroke-linecap="round" stroke-linejoin="round"/>
<path d="M6.24854 10.4633L6.29373 11.757L7.94345 13.0452L8.21464 12.8587L7.84176 10.9322L6.24854 10.4633Z" fill="#F6851B" stroke="#F6851B" stroke-width="0.0753296" stroke-linecap="round" stroke-linejoin="round"/>
<path d="M10.1862 14.8192L10.2032 14.2938L10.0619 14.1695H7.932L7.80205 14.2938L7.81335 14.8192L6.03369 13.9774L6.65516 14.4859L7.91505 15.3616H10.0789L11.3444 14.4859L11.9659 13.9774L10.1862 14.8192Z" fill="#C0AD9E" stroke="#C0AD9E" stroke-width="0.0753296" stroke-linecap="round" stroke-linejoin="round"/>
<path d="M10.0508 13.0452L9.77965 12.8588H8.21467L7.94349 13.0452L7.80225 14.2938L7.93219 14.1695H10.0621L10.2034 14.2938L10.0508 13.0452Z" fill="#161616" stroke="#161616" stroke-width="0.0753296" stroke-linecap="round" stroke-linejoin="round"/>
<path d="M15.7231 6.452L16.2033 4.14692L15.4858 2.00568L10.0508 6.03957L12.1412 7.80794L15.096 8.67234L15.7513 7.90963L15.4689 7.70624L15.9208 7.29381L15.5706 7.02263L16.0225 6.67799L15.7231 6.452Z" fill="#763D16" stroke="#763D16" stroke-width="0.0753296" stroke-linecap="round" stroke-linejoin="round"/>
<path d="M1.79639 4.14692L2.27661 6.452L1.97153 6.67799L2.42351 7.02263L2.07887 7.29381L2.53085 7.70624L2.24836 7.90963L2.89808 8.67234L5.85288 7.80794L7.94328 6.03957L2.50825 2.00568L1.79639 4.14692Z" fill="#763D16" stroke="#763D16" stroke-width="0.0753296" stroke-linecap="round" stroke-linejoin="round"/>
<path d="M15.0962 8.67233L12.1414 7.80792L13.0397 9.15821L11.7007 11.7571L13.4634 11.7345H16.0905L15.0962 8.67233Z" fill="#F6851B" stroke="#F6851B" stroke-width="0.0753296" stroke-linecap="round" stroke-linejoin="round"/>
<path d="M5.85289 7.80792L2.89809 8.67233L1.91504 11.7345H4.53651L6.29357 11.7571L4.96024 9.15821L5.85289 7.80792Z" fill="#F6851B" stroke="#F6851B" stroke-width="0.0753296" stroke-linecap="round" stroke-linejoin="round"/>
<path d="M9.86455 9.29945L10.051 6.03956L10.9098 3.71753H7.09619L7.94365 6.03956L8.14139 9.29945L8.20919 10.3277L8.21484 12.8588H9.77981L9.79111 10.3277L9.86455 9.29945Z" fill="#F6851B" stroke="#F6851B" stroke-width="0.0753296" stroke-linecap="round" stroke-linejoin="round"/>
</svg>
