<svg width="40" height="40" viewBox="0 0 40 40" fill="none" xmlns="http://www.w3.org/2000/svg">
<path d="M34.4131 4.45703L21.9209 13.7351L24.231 8.26118L34.4131 4.45703Z" fill="#E2761B" stroke="#E2761B" stroke-width="0.125549" stroke-linecap="round" stroke-linejoin="round"/>
<path d="M5.5752 4.45691L17.9669 13.8229L15.7698 8.26105L5.5752 4.45691Z" fill="#E4761B" stroke="#E4761B" stroke-width="0.125549" stroke-linecap="round" stroke-linejoin="round"/>
<path d="M29.9198 25.9635L26.5928 31.0608L33.7114 33.0194L35.7579 26.0765L29.9198 25.9635Z" fill="#E4761B" stroke="#E4761B" stroke-width="0.125549" stroke-linecap="round" stroke-linejoin="round"/>
<path d="M4.25684 26.0765L6.29073 33.0194L13.4094 31.0608L10.0823 25.9635L4.25684 26.0765Z" fill="#E4761B" stroke="#E4761B" stroke-width="0.125549" stroke-linecap="round" stroke-linejoin="round"/>
<path d="M13.0081 17.3508L11.0244 20.3514L18.0928 20.6653L17.8417 13.0696L13.0081 17.3508Z" fill="#E4761B" stroke="#E4761B" stroke-width="0.125549" stroke-linecap="round" stroke-linejoin="round"/>
<path d="M26.9805 17.3508L22.0841 12.9817L21.9209 20.6653L28.9768 20.3514L26.9805 17.3508Z" fill="#E4761B" stroke="#E4761B" stroke-width="0.125549" stroke-linecap="round" stroke-linejoin="round"/>
<path d="M13.4092 31.0607L17.6527 28.9891L13.9867 26.1266L13.4092 31.0607Z" fill="#E4761B" stroke="#E4761B" stroke-width="0.125549" stroke-linecap="round" stroke-linejoin="round"/>
<path d="M22.3359 28.9891L26.5921 31.0607L26.002 26.1266L22.3359 28.9891Z" fill="#E4761B" stroke="#E4761B" stroke-width="0.125549" stroke-linecap="round" stroke-linejoin="round"/>
<path d="M26.5901 31.0608L22.334 28.9893L22.673 31.7639L22.6353 32.9315L26.5901 31.0608Z" fill="#D7C1B3" stroke="#D7C1B3" stroke-width="0.125549" stroke-linecap="round" stroke-linejoin="round"/>
<path d="M13.4082 31.0608L17.363 32.9315L17.3379 31.7639L17.6518 28.9893L13.4082 31.0608Z" fill="#D7C1B3" stroke="#D7C1B3" stroke-width="0.125549" stroke-linecap="round" stroke-linejoin="round"/>
<path d="M17.4253 24.2937L13.8848 23.2516L16.3832 22.1091L17.4253 24.2937Z" fill="#233447" stroke="#233447" stroke-width="0.125549" stroke-linecap="round" stroke-linejoin="round"/>
<path d="M22.5615 24.2937L23.6036 22.1091L26.1146 23.2516L22.5615 24.2937Z" fill="#233447" stroke="#233447" stroke-width="0.125549" stroke-linecap="round" stroke-linejoin="round"/>
<path d="M13.4091 31.0608L14.0117 25.9635L10.082 26.0765L13.4091 31.0608Z" fill="#CD6116" stroke="#CD6116" stroke-width="0.125549" stroke-linecap="round" stroke-linejoin="round"/>
<path d="M25.9883 25.9635L26.5909 31.0608L29.918 26.0765L25.9883 25.9635Z" fill="#CD6116" stroke="#CD6116" stroke-width="0.125549" stroke-linecap="round" stroke-linejoin="round"/>
<path d="M28.9768 20.3516L21.9209 20.6654L22.5738 24.2938L23.6158 22.1093L26.1268 23.2517L28.9768 20.3516Z" fill="#CD6116" stroke="#CD6116" stroke-width="0.125549" stroke-linecap="round" stroke-linejoin="round"/>
<path d="M13.8869 23.2517L16.3979 22.1093L17.4274 24.2938L18.0928 20.6654L11.0244 20.3516L13.8869 23.2517Z" fill="#CD6116" stroke="#CD6116" stroke-width="0.125549" stroke-linecap="round" stroke-linejoin="round"/>
<path d="M11.0244 20.3516L13.9874 26.1268L13.8869 23.2518L11.0244 20.3516Z" fill="#E4751F" stroke="#E4751F" stroke-width="0.125549" stroke-linecap="round" stroke-linejoin="round"/>
<path d="M26.1285 23.2518L26.0029 26.1268L28.9784 20.3516L26.1285 23.2518Z" fill="#E4751F" stroke="#E4751F" stroke-width="0.125549" stroke-linecap="round" stroke-linejoin="round"/>
<path d="M18.0931 20.6655L17.4277 24.2939L18.2564 28.5751L18.4447 22.938L18.0931 20.6655Z" fill="#E4751F" stroke="#E4751F" stroke-width="0.125549" stroke-linecap="round" stroke-linejoin="round"/>
<path d="M21.922 20.6655L21.583 22.9254L21.7337 28.5751L22.5748 24.2939L21.922 20.6655Z" fill="#E4751F" stroke="#E4751F" stroke-width="0.125549" stroke-linecap="round" stroke-linejoin="round"/>
<path d="M22.5726 24.2938L21.7314 28.575L22.3341 28.9893L26.0001 26.1268L26.1257 23.2517L22.5726 24.2938Z" fill="#F6851B" stroke="#F6851B" stroke-width="0.125549" stroke-linecap="round" stroke-linejoin="round"/>
<path d="M13.8848 23.2517L13.9852 26.1268L17.6512 28.9893L18.2539 28.575L17.4253 24.2938L13.8848 23.2517Z" fill="#F6851B" stroke="#F6851B" stroke-width="0.125549" stroke-linecap="round" stroke-linejoin="round"/>
<path d="M22.6361 32.9315L22.6737 31.7639L22.3599 31.4877H17.6267L17.3379 31.7639L17.363 32.9315L13.4082 31.0608L14.7892 32.1907L17.589 34.1367H22.3975L25.2098 32.1907L26.5909 31.0608L22.6361 32.9315Z" fill="#C0AD9E" stroke="#C0AD9E" stroke-width="0.125549" stroke-linecap="round" stroke-linejoin="round"/>
<path d="M22.3357 28.9894L21.7331 28.5751H18.2554L17.6527 28.9894L17.3389 31.764L17.6276 31.4878H22.3608L22.6747 31.764L22.3357 28.9894Z" fill="#161616" stroke="#161616" stroke-width="0.125549" stroke-linecap="round" stroke-linejoin="round"/>
<path d="M34.9411 14.3376L36.0083 9.21523L34.4138 4.45691L22.3359 13.4211L26.9813 17.3508L33.5475 19.2717L35.0039 17.5768L34.3761 17.1248L35.3805 16.2083L34.6021 15.6057L35.6065 14.8398L34.9411 14.3376Z" fill="#763D16" stroke="#763D16" stroke-width="0.125549" stroke-linecap="round" stroke-linejoin="round"/>
<path d="M3.99316 9.21523L5.06033 14.3376L4.38237 14.8398L5.38676 15.6057L4.62091 16.2083L5.6253 17.1248L4.99756 17.5768L6.44138 19.2717L13.0076 17.3508L17.6529 13.4211L5.57509 4.45691L3.99316 9.21523Z" fill="#763D16" stroke="#763D16" stroke-width="0.125549" stroke-linecap="round" stroke-linejoin="round"/>
<path d="M33.5465 19.2717L26.9803 17.3508L28.9765 20.3515L26.001 26.1267L29.9181 26.0765H35.7562L33.5465 19.2717Z" fill="#F6851B" stroke="#F6851B" stroke-width="0.125549" stroke-linecap="round" stroke-linejoin="round"/>
<path d="M13.0066 17.3508L6.44042 19.2717L4.25586 26.0765H10.0813L13.9859 26.1267L11.023 20.3515L13.0066 17.3508Z" fill="#F6851B" stroke="#F6851B" stroke-width="0.125549" stroke-linecap="round" stroke-linejoin="round"/>
<path d="M21.9205 20.6654L22.3348 13.4212L24.2431 8.26111H15.7686L17.6518 13.4212L18.0912 20.6654L18.2419 22.9504L18.2544 28.575H21.7321L21.7573 22.9504L21.9205 20.6654Z" fill="#F6851B" stroke="#F6851B" stroke-width="0.125549" stroke-linecap="round" stroke-linejoin="round"/>
</svg>
