<svg width="18" height="22" viewBox="0 0 18 22" fill="none" xmlns="http://www.w3.org/2000/svg">
<g id="vuesax/outline/microphone-slash">
<g id="microphone-slash">
<path id="Vector" d="M5 10.75C4.59 10.75 4.25 10.41 4.25 10V5C4.25 2.38 6.38 0.25 9 0.25C11.62 0.25 13.75 2.38 13.75 5V5.3C13.75 5.71 13.41 6.05 13 6.05C12.59 6.05 12.25 5.71 12.25 5.3V5C12.25 3.21 10.79 1.75 9 1.75C7.21 1.75 5.75 3.21 5.75 5V10C5.75 10.41 5.41 10.75 5 10.75Z" fill="white"/>
<path id="Vector_2" d="M9.00064 15.25C7.66064 15.25 6.38064 14.68 5.48064 13.69C5.20064 13.38 5.23064 12.91 5.53064 12.63C5.84064 12.35 6.31064 12.38 6.59064 12.68C7.20064 13.36 8.08064 13.75 9.00064 13.75C10.7906 13.75 12.2506 12.29 12.2506 10.5V10C12.2506 9.59 12.5906 9.25 13.0006 9.25C13.4106 9.25 13.7506 9.59 13.7506 10V10.5C13.7506 13.12 11.6206 15.25 9.00064 15.25Z" fill="white"/>
<path id="Vector_3" d="M9.00031 18.7504C6.87031 18.7504 4.83031 17.9504 3.27031 16.5004C2.97031 16.2204 2.95031 15.7404 3.23031 15.4404C3.52031 15.1304 4.00031 15.1204 4.30031 15.4004C5.58031 16.5904 7.25031 17.2504 9.00031 17.2504C12.8003 17.2504 15.9003 14.1504 15.9003 10.3504V8.65039C15.9003 8.24039 16.2403 7.90039 16.6503 7.90039C17.0603 7.90039 17.4003 8.24039 17.4003 8.65039V10.3504C17.4003 14.9804 13.6303 18.7504 9.00031 18.7504Z" fill="white"/>
<path id="Vector_4" d="M1.95059 14.0804C1.66059 14.0804 1.38059 13.9104 1.26059 13.6204C0.820586 12.5804 0.600586 11.4904 0.600586 10.3504V8.65039C0.600586 8.24039 0.940586 7.90039 1.35059 7.90039C1.76059 7.90039 2.10059 8.24039 2.10059 8.65039V10.3504C2.10059 11.2804 2.28059 12.1804 2.64059 13.0304C2.80059 13.4104 2.62059 13.8504 2.24059 14.0104C2.15059 14.0604 2.05059 14.0804 1.95059 14.0804Z" fill="white"/>
<path id="Vector_5" d="M0.920352 18.7403C0.730352 18.7403 0.540352 18.6703 0.390352 18.5203C0.100352 18.2303 0.100352 17.7503 0.390352 17.4603L16.5404 1.31027C16.8304 1.02027 17.3104 1.02027 17.6004 1.31027C17.8904 1.60027 17.8904 2.08027 17.6004 2.37027L1.46035 18.5203C1.31035 18.6703 1.12035 18.7403 0.920352 18.7403Z" fill="white"/>
<path id="Vector_6" d="M8 5.75C7.59 5.75 7.25 5.41 7.25 5V2C7.25 1.59 7.59 1.25 8 1.25C8.41 1.25 8.75 1.59 8.75 2V5C8.75 5.41 8.41 5.75 8 5.75Z" fill="white"/>
<path id="Vector_7" d="M9 21.75C8.59 21.75 8.25 21.41 8.25 21V18C8.25 17.59 8.59 17.25 9 17.25C9.41 17.25 9.75 17.59 9.75 18V21C9.75 21.41 9.41 21.75 9 21.75Z" fill="white"/>
</g>
</g>
</svg>
