<svg width="18" height="22" viewBox="0 0 18 22" fill="none" xmlns="http://www.w3.org/2000/svg">
<g id="vuesax/outline/microphone-2">
<g id="microphone-2">
<path id="Vector" d="M9 15.25C6.38 15.25 4.25 13.12 4.25 10.5V5C4.25 2.38 6.38 0.25 9 0.25C11.62 0.25 13.75 2.38 13.75 5V10.5C13.75 13.12 11.62 15.25 9 15.25ZM9 1.75C7.21 1.75 5.75 3.21 5.75 5V10.5C5.75 12.29 7.21 13.75 9 13.75C10.79 13.75 12.25 12.29 12.25 10.5V5C12.25 3.21 10.79 1.75 9 1.75Z" fill="white"/>
<path id="Vector_2" d="M8.99998 18.75C4.36998 18.75 0.599976 14.98 0.599976 10.35V8.64999C0.599976 8.23999 0.939976 7.89999 1.34998 7.89999C1.75998 7.89999 2.09998 8.23999 2.09998 8.64999V10.35C2.09998 14.15 5.19998 17.25 8.99998 17.25C12.8 17.25 15.9 14.15 15.9 10.35V8.64999C15.9 8.23999 16.24 7.89999 16.65 7.89999C17.06 7.89999 17.4 8.23999 17.4 8.64999V10.35C17.4 14.98 13.63 18.75 8.99998 18.75Z" fill="white"/>
<path id="Vector_3" d="M10.39 6.18001C10.31 6.18001 10.22 6.17001 10.13 6.14001C9.4 5.87001 8.6 5.87001 7.87 6.14001C7.48 6.28001 7.05 6.08001 6.91 5.69001C6.77 5.30001 6.97 4.87001 7.36 4.73001C8.42 4.35001 9.59 4.35001 10.65 4.73001C11.04 4.87001 11.24 5.30001 11.1 5.69001C10.98 5.99001 10.69 6.18001 10.39 6.18001Z" fill="white"/>
<path id="Vector_4" d="M9.79995 8.30001C9.72995 8.30001 9.66995 8.29001 9.59995 8.27001C9.19995 8.16001 8.78995 8.16001 8.38995 8.27001C7.98995 8.38001 7.57995 8.14001 7.46995 7.74001C7.35995 7.35001 7.59995 6.94001 7.99995 6.83001C8.64995 6.65001 9.34995 6.65001 9.99995 6.83001C10.4 6.94001 10.64 7.35001 10.53 7.75001C10.44 8.08001 10.13 8.30001 9.79995 8.30001Z" fill="white"/>
<path id="Vector_5" d="M9 21.75C8.59 21.75 8.25 21.41 8.25 21V18C8.25 17.59 8.59 17.25 9 17.25C9.41 17.25 9.75 17.59 9.75 18V21C9.75 21.41 9.41 21.75 9 21.75Z" fill="white"/>
</g>
</g>
</svg>
