<svg width="23" height="22" viewBox="0 0 23 22" fill="none" xmlns="http://www.w3.org/2000/svg">
<g id="vuesax/outline/people">
<g id="people">
<path id="Vector" d="M17.5003 6.90977C17.4703 6.90977 17.4503 6.90977 17.4203 6.90977H17.3703C15.4803 6.84977 14.0703 5.38977 14.0703 3.58977C14.0703 1.74977 15.5703 0.259766 17.4003 0.259766C19.2303 0.259766 20.7303 1.75977 20.7303 3.58977C20.7203 5.39977 19.3103 6.85977 17.5103 6.91977C17.5103 6.90977 17.5103 6.90977 17.5003 6.90977ZM17.4003 1.74977C16.3903 1.74977 15.5703 2.56977 15.5703 3.57977C15.5703 4.56977 16.3403 5.36977 17.3303 5.40977C17.3403 5.39977 17.4203 5.39977 17.5103 5.40977C18.4803 5.35977 19.2303 4.55977 19.2403 3.57977C19.2403 2.56977 18.4203 1.74977 17.4003 1.74977Z" fill="white"/>
<path id="Vector_2" d="M17.5105 14.2797C17.1205 14.2797 16.7305 14.2497 16.3405 14.1797C15.9305 14.1097 15.6605 13.7197 15.7305 13.3097C15.8005 12.8997 16.1905 12.6297 16.6005 12.6997C17.8305 12.9097 19.1305 12.6797 20.0005 12.0997C20.4705 11.7897 20.7205 11.3997 20.7205 11.0097C20.7205 10.6197 20.4605 10.2397 20.0005 9.92965C19.1305 9.34965 17.8105 9.11966 16.5705 9.33966C16.1605 9.41966 15.7705 9.13966 15.7005 8.72966C15.6305 8.31966 15.9005 7.92966 16.3105 7.85966C17.9405 7.56966 19.6305 7.87965 20.8305 8.67965C21.7105 9.26965 22.2205 10.1097 22.2205 11.0097C22.2205 11.8997 21.7205 12.7497 20.8305 13.3497C19.9205 13.9497 18.7405 14.2797 17.5105 14.2797Z" fill="white"/>
<path id="Vector_3" d="M5.47047 6.91C5.46047 6.91 5.45047 6.91 5.45047 6.91C3.65047 6.85 2.24047 5.39 2.23047 3.59C2.23047 1.75 3.73047 0.25 5.56047 0.25C7.39047 0.25 8.89047 1.75 8.89047 3.58C8.89047 5.39 7.48047 6.85 5.68047 6.91L5.47047 6.16L5.54047 6.91C5.52047 6.91 5.49047 6.91 5.47047 6.91ZM5.57047 5.41C5.63047 5.41 5.68047 5.41 5.74047 5.42C6.63047 5.38 7.41047 4.58 7.41047 3.59C7.41047 2.58 6.59047 1.75999 5.58047 1.75999C4.57047 1.75999 3.75047 2.58 3.75047 3.59C3.75047 4.57 4.51047 5.36 5.48047 5.42C5.49047 5.41 5.53047 5.41 5.57047 5.41Z" fill="white"/>
<path id="Vector_4" d="M5.46 14.2797C4.23 14.2797 3.05 13.9497 2.14 13.3497C1.26 12.7597 0.75 11.9097 0.75 11.0097C0.75 10.1197 1.26 9.26965 2.14 8.67965C3.34 7.87965 5.03 7.56966 6.66 7.85966C7.07 7.92966 7.34 8.31966 7.27 8.72966C7.2 9.13966 6.81 9.41966 6.4 9.33966C5.16 9.11966 3.85 9.34965 2.97 9.92965C2.5 10.2397 2.25 10.6197 2.25 11.0097C2.25 11.3997 2.51 11.7897 2.97 12.0997C3.84 12.6797 5.14 12.9097 6.37 12.6997C6.78 12.6297 7.17 12.9097 7.24 13.3097C7.31 13.7197 7.04 14.1097 6.63 14.1797C6.24 14.2497 5.85 14.2797 5.46 14.2797Z" fill="white"/>
<path id="Vector_5" d="M11.5003 14.3805C11.4703 14.3805 11.4503 14.3805 11.4203 14.3805H11.3703C9.48031 14.3205 8.07031 12.8605 8.07031 11.0605C8.07031 9.22047 9.57031 7.73047 11.4003 7.73047C13.2303 7.73047 14.7303 9.23047 14.7303 11.0605C14.7203 12.8705 13.3103 14.3305 11.5103 14.3905C11.5103 14.3805 11.5103 14.3805 11.5003 14.3805ZM11.4003 9.22047C10.3903 9.22047 9.57031 10.0405 9.57031 11.0505C9.57031 12.0405 10.3403 12.8405 11.3303 12.8805C11.3403 12.8705 11.4203 12.8705 11.5103 12.8805C12.4803 12.8305 13.2303 12.0305 13.2403 11.0505C13.2403 10.0505 12.4203 9.22047 11.4003 9.22047Z" fill="white"/>
<path id="Vector_6" d="M11.4993 21.7597C10.2993 21.7597 9.0993 21.4497 8.1693 20.8197C7.2893 20.2297 6.7793 19.3897 6.7793 18.4897C6.7793 17.5997 7.2793 16.7397 8.1693 16.1497C10.0393 14.9097 12.9693 14.9097 14.8293 16.1497C15.7093 16.7397 16.2193 17.5797 16.2193 18.4797C16.2193 19.3697 15.7193 20.2297 14.8293 20.8197C13.8993 21.4397 12.6993 21.7597 11.4993 21.7597ZM8.9993 17.4097C8.5293 17.7197 8.2793 18.1097 8.2793 18.4997C8.2793 18.8897 8.5393 19.2697 8.9993 19.5797C10.3493 20.4897 12.6393 20.4897 13.9893 19.5797C14.4593 19.2697 14.7093 18.8797 14.7093 18.4897C14.7093 18.0997 14.4493 17.7197 13.9893 17.4097C12.6493 16.4997 10.3593 16.5097 8.9993 17.4097Z" fill="white"/>
</g>
</g>
</svg>
