<svg width="24" height="24" viewBox="0 0 16 16" fill="none" xmlns="http://www.w3.org/2000/svg">
<path fill-rule="evenodd" clip-rule="evenodd" d="M7.16774 1.32901C7.17007 1.60514 6.94807 1.83089 6.67194 1.83323C5.53223 1.8429 4.69227 1.87996 4.04155 2.00742C3.40479 2.13215 2.98622 2.3368 2.66313 2.65989C2.28323 3.03979 2.06523 3.55377 1.95062 4.40628C1.83407 5.27316 1.83301 6.41228 1.83301 7.99818C1.83301 9.58405 1.83407 10.7232 1.95062 11.5901C2.06523 12.4426 2.28323 12.9566 2.66313 13.3365C3.04303 13.7164 3.55701 13.9344 4.40951 14.049C5.2764 14.1655 6.41552 14.1666 8.00141 14.1666C9.58727 14.1666 10.7264 14.1655 11.5933 14.049C12.4458 13.9344 12.9598 13.7164 13.3397 13.3365C13.6628 13.0134 13.8675 12.5948 13.9921 11.9581C14.1196 11.3073 14.1567 10.4674 14.1663 9.32765C14.1687 9.05152 14.3945 8.82952 14.6706 8.83185C14.9467 8.83425 15.1687 9.05998 15.1663 9.33612C15.1567 10.4724 15.1209 11.3978 14.9735 12.1503C14.8234 12.9167 14.5511 13.5393 14.0468 14.0436C13.4501 14.6403 12.6899 14.9105 11.7265 15.0401C10.7853 15.1666 9.57901 15.1666 8.03967 15.1666H7.96314C6.42383 15.1666 5.21749 15.1666 4.27626 15.0401C3.31287 14.9105 2.55269 14.6403 1.95602 14.0436C1.35935 13.4469 1.08906 12.6867 0.959535 11.7233C0.832995 10.7821 0.833001 9.57578 0.833008 8.03645V7.95992C0.833001 6.42059 0.832995 5.21426 0.959535 4.27303C1.08906 3.30964 1.35935 2.54945 1.95602 1.95278C2.46035 1.44845 3.08286 1.1762 3.84932 1.02607C4.60182 0.87867 5.52722 0.842904 6.6635 0.83327C6.93961 0.83093 7.16534 1.05288 7.16774 1.32901ZM10.9795 0.979697C11.1747 0.784437 11.4913 0.784437 11.6865 0.979697L15.0199 4.31303C15.2151 4.50829 15.2151 4.82488 15.0199 5.02014L11.6865 8.35345C11.4913 8.54872 11.1747 8.54872 10.9795 8.35345C10.7842 8.15818 10.7842 7.84165 10.9795 7.64638L13.4592 5.16658H9.33301C8.29867 5.16658 7.68821 5.67126 7.47434 5.88614L7.34627 6.01488L7.21921 6.14128C7.00434 6.35511 6.49967 6.96558 6.49967 7.99992V9.99992C6.49967 10.2761 6.27581 10.4999 5.99967 10.4999C5.72353 10.4999 5.49967 10.2761 5.49967 9.99992V7.99992C5.49967 6.61073 6.18436 5.76034 6.51384 5.43246L6.64086 5.30605L6.76554 5.18075C7.09341 4.85127 7.94381 4.16658 9.33301 4.16658H13.4592L10.9795 1.6868C10.7842 1.49154 10.7842 1.17496 10.9795 0.979697Z" fill="white" fill-opacity="0.85"/>
</svg>
