<svg width="15" height="16" viewBox="0 0 15 16" fill="none" xmlns="http://www.w3.org/2000/svg">
<g id="Group 1">
<path id="Vector" fill-rule="evenodd" clip-rule="evenodd" d="M8.66561 14.6708C8.66328 14.3947 8.88528 14.1689 9.16141 14.1666C10.3011 14.1569 11.1411 14.1199 11.7918 13.9924C12.4286 13.8677 12.8471 13.663 13.1702 13.3399C13.5501 12.96 13.7681 12.4461 13.8827 11.5936C13.9993 10.7267 14.0003 9.58755 14.0003 8.00165C14.0003 6.41579 13.9993 5.27665 13.8827 4.40979C13.7681 3.55725 13.5501 3.04325 13.1702 2.66338C12.7903 2.28345 12.2763 2.06545 11.4238 1.95085C10.557 1.83432 9.41783 1.83325 7.83194 1.83325C6.24608 1.83325 5.10694 1.83432 4.24001 1.95085C3.38754 2.06545 2.87354 2.28345 2.49368 2.66338C2.17054 2.98645 1.96588 3.40505 1.84121 4.04179C1.71374 4.69252 1.67668 5.53245 1.66701 6.67219C1.66468 6.94832 1.43888 7.17032 1.16274 7.16799C0.886611 7.16559 0.664677 6.93985 0.66701 6.66372C0.676677 5.52745 0.71241 4.60205 0.85981 3.84959C1.00994 3.08312 1.28221 2.46059 1.78654 1.95625C2.38321 1.35959 3.14341 1.08932 4.10681 0.959785C5.04801 0.833252 6.25434 0.833252 7.79368 0.833252H7.87021C9.40952 0.833252 10.6159 0.833252 11.5571 0.959785C12.5205 1.08932 13.2807 1.35959 13.8773 1.95625C14.474 2.55292 14.7443 3.31312 14.8738 4.27652C15.0004 5.21772 15.0003 6.42405 15.0003 7.96339V8.03992C15.0003 9.57925 15.0004 10.7856 14.8738 11.7268C14.7443 12.6902 14.474 13.4504 13.8773 14.0471C13.373 14.5514 12.7505 14.8236 11.984 14.9738C11.2315 15.1212 10.3061 15.1569 9.16986 15.1666C8.89374 15.1689 8.66801 14.947 8.66561 14.6708ZM4.85388 15.0201C4.65861 15.2154 4.34208 15.2154 4.14681 15.0201L0.813477 11.6868C0.61821 11.4915 0.61821 11.175 0.813477 10.9797L4.14681 7.64639C4.34208 7.45112 4.65861 7.45112 4.85388 7.64639C5.04914 7.84165 5.04914 8.15819 4.85388 8.35345L2.37414 10.8333H6.50034C7.53468 10.8333 8.14514 10.3286 8.35901 10.1137L8.48708 9.98496L8.61414 9.85856C8.82901 9.64473 9.33368 9.03425 9.33368 7.99992V5.99992C9.33368 5.72379 9.55754 5.49992 9.83368 5.49992C10.1098 5.49992 10.3337 5.72379 10.3337 5.99992V7.99992C10.3337 9.38911 9.64899 10.2395 9.31951 10.5674L9.19249 10.6938L9.06781 10.8191C8.73994 11.1486 7.88954 11.8333 6.50034 11.8333H2.37414L4.85388 14.313C5.04914 14.5083 5.04914 14.8249 4.85388 15.0201Z" fill="#CACCCE"/>
</g>
</svg>
