<svg width="20" height="20" viewBox="0 0 20 20" fill="none" xmlns="http://www.w3.org/2000/svg">
    <g id="vuesax/outline/send">
        <g id="send">
            <path id="Vector"
                  d="M3.40995 19.7499C2.28995 19.7499 1.57995 19.3699 1.12995 18.9199C0.249949 18.0399 -0.370052 16.1699 1.60995 12.1999L2.47995 10.4699C2.58995 10.2399 2.58995 9.7599 2.47995 9.5299L1.60995 7.7999C-0.380052 3.8299 0.249949 1.9499 1.12995 1.0799C1.99995 0.1999 3.87995 -0.4301 7.83995 1.5599L16.3999 5.8399C18.5299 6.8999 19.6999 8.3799 19.6999 9.9999C19.6999 11.6199 18.5299 13.0999 16.4099 14.1599L7.84995 18.4399C5.90995 19.4099 4.46995 19.7499 3.40995 19.7499ZM3.40995 1.7499C2.86995 1.7499 2.44995 1.8799 2.18995 2.1399C1.45995 2.8599 1.74995 4.7299 2.94995 7.1199L3.81995 8.8599C4.13995 9.5099 4.13995 10.4899 3.81995 11.1399L2.94995 12.8699C1.74995 15.2699 1.45995 17.1299 2.18995 17.8499C2.90995 18.5799 4.77995 18.2899 7.17995 17.0899L15.7399 12.8099C17.3099 12.0299 18.1999 10.9999 18.1999 9.9899C18.1999 8.9799 17.2999 7.9499 15.7299 7.1699L7.16995 2.8999C5.64995 2.1399 4.33995 1.7499 3.40995 1.7499Z"
                  fill="white" fill-opacity="0.45"/>
            <path id="Vector_2"
                  d="M8.84043 10.75H3.44043C3.03043 10.75 2.69043 10.41 2.69043 10C2.69043 9.59 3.03043 9.25 3.44043 9.25H8.84043C9.25043 9.25 9.59043 9.59 9.59043 10C9.59043 10.41 9.25043 10.75 8.84043 10.75Z"
                  fill="white" fill-opacity="0.45"/>
        </g>
    </g>
</svg>
