<svg width="25" height="24" viewBox="0 0 25 24" fill="none" xmlns="http://www.w3.org/2000/svg">
<g id="vuesax/outline/mirroring-screen">
<g id="mirroring-screen">
<path id="Vector" d="M17.5 21.75H16.5C16.09 21.75 15.75 21.41 15.75 21C15.75 20.59 16.09 20.25 16.5 20.25H17.5C20.08 20.25 21.75 18.58 21.75 16V8C21.75 5.42 20.08 3.75 17.5 3.75H7.5C4.92 3.75 3.25 5.42 3.25 8V9C3.25 9.41 2.91 9.75 2.5 9.75C2.09 9.75 1.75 9.41 1.75 9V8C1.75 4.56 4.06 2.25 7.5 2.25H17.5C20.94 2.25 23.25 4.56 23.25 8V16C23.25 19.44 20.94 21.75 17.5 21.75Z" fill="white"/>
<path id="Vector_2" d="M12.7902 21.0597C12.4202 21.0597 12.1002 20.7797 12.0502 20.4097C11.5002 16.1297 8.38017 12.9997 4.09017 12.4497C3.68017 12.3997 3.39018 12.0197 3.44018 11.6097C3.49018 11.1997 3.87017 10.9097 4.28017 10.9597C9.26017 11.5997 12.9002 15.2297 13.5302 20.2097C13.5802 20.6197 13.2902 20.9997 12.8802 21.0497C12.8602 21.0597 12.8202 21.0597 12.7902 21.0597Z" fill="white"/>
<path id="Vector_3" d="M9.42986 22.1301C9.05986 22.1301 8.73987 21.8501 8.68987 21.4801C8.29987 18.4301 6.06987 16.2 3.01987 15.81C2.60987 15.76 2.31986 15.3801 2.36986 14.9701C2.41986 14.5601 2.79987 14.2701 3.20987 14.3201C6.95987 14.8001 9.68987 17.5401 10.1699 21.2801C10.2199 21.6901 9.92987 22.07 9.51987 22.12C9.48987 22.13 9.45986 22.1301 9.42986 22.1301Z" fill="white"/>
<path id="Vector_4" d="M5.63022 22.7699C5.26022 22.7699 4.94022 22.4899 4.89022 22.1199C4.72022 20.7699 3.73022 19.7799 2.38022 19.6099C1.97022 19.5599 1.68021 19.1799 1.73021 18.7699C1.78021 18.3599 2.16023 18.0699 2.57023 18.1199C4.59023 18.3799 6.12022 19.9099 6.38022 21.9299C6.43022 22.3399 6.14021 22.7199 5.73021 22.7699C5.70021 22.7699 5.67022 22.7699 5.63022 22.7699Z" fill="white"/>
</g>
</g>
</svg>
