<svg width="25" height="24" viewBox="0 0 25 24" fill="none" xmlns="http://www.w3.org/2000/svg">
<g id="vuesax/outline/share">
<g id="share">
<path id="Vector" d="M21.1196 13.0703C20.7396 13.0703 20.4196 12.7803 20.3696 12.4003C20.1296 10.1403 18.9096 8.09035 17.0296 6.79035C16.6896 6.55035 16.6096 6.09035 16.8396 5.75035C17.0796 5.41035 17.5496 5.33035 17.8796 5.56035C20.1196 7.11035 21.5596 9.55035 21.8496 12.2403C21.8896 12.6503 21.5996 13.0203 21.1796 13.0703C21.1696 13.0703 21.1396 13.0703 21.1196 13.0703Z" fill="white"/>
<path id="Vector_2" d="M3.98991 13.1203C3.95991 13.1203 3.93991 13.1203 3.90991 13.1203C3.49991 13.0703 3.19991 12.7003 3.23991 12.2903C3.50991 9.60026 4.93991 7.17026 7.14991 5.60026C7.48991 5.36026 7.95991 5.44026 8.19991 5.78026C8.43991 6.12026 8.35991 6.59026 8.01991 6.83026C6.15991 8.14026 4.95991 10.1903 4.72991 12.4503C4.69991 12.8303 4.36991 13.1203 3.98991 13.1203Z" fill="white"/>
<path id="Vector_3" d="M12.56 22.61C11.08 22.61 9.66997 22.27 8.34997 21.61C7.97997 21.42 7.82997 20.97 8.01997 20.6C8.20997 20.23 8.65997 20.08 9.02997 20.27C11.19 21.36 13.79 21.38 15.97 20.33C16.34 20.15 16.79 20.31 16.97 20.68C17.15 21.05 16.99 21.5 16.62 21.68C15.34 22.3 13.98 22.61 12.56 22.61Z" fill="white"/>
<path id="Vector_4" d="M12.5603 8.43988C10.6103 8.43988 9.03027 6.85988 9.03027 4.90988C9.03027 2.95988 10.6103 1.37988 12.5603 1.37988C14.5103 1.37988 16.0903 2.95988 16.0903 4.90988C16.0903 6.85988 14.5003 8.43988 12.5603 8.43988ZM12.5603 2.88988C11.4403 2.88988 10.5303 3.79988 10.5303 4.91988C10.5303 6.03988 11.4403 6.94988 12.5603 6.94988C13.6803 6.94988 14.5903 6.03988 14.5903 4.91988C14.5903 3.79988 13.6703 2.88988 12.5603 2.88988Z" fill="white"/>
<path id="Vector_5" d="M5.3298 20.6704C3.3798 20.6704 1.7998 19.0904 1.7998 17.1404C1.7998 15.2004 3.3798 13.6104 5.3298 13.6104C7.2798 13.6104 8.8598 15.1904 8.8598 17.1404C8.8598 19.0804 7.2798 20.6704 5.3298 20.6704ZM5.3298 15.1104C4.2098 15.1104 3.2998 16.0204 3.2998 17.1404C3.2998 18.2604 4.2098 19.1704 5.3298 19.1704C6.4498 19.1704 7.35981 18.2604 7.35981 17.1404C7.35981 16.0204 6.4498 15.1104 5.3298 15.1104Z" fill="white"/>
<path id="Vector_6" d="M19.6696 20.6704C17.7196 20.6704 16.1396 19.0904 16.1396 17.1404C16.1396 15.2004 17.7196 13.6104 19.6696 13.6104C21.6196 13.6104 23.1996 15.1904 23.1996 17.1404C23.1896 19.0804 21.6096 20.6704 19.6696 20.6704ZM19.6696 15.1104C18.5496 15.1104 17.6396 16.0204 17.6396 17.1404C17.6396 18.2604 18.5496 19.1704 19.6696 19.1704C20.7896 19.1704 21.6996 18.2604 21.6996 17.1404C21.6896 16.0204 20.7896 15.1104 19.6696 15.1104Z" fill="white"/>
</g>
</g>
</svg>
