<svg width="19" height="18" viewBox="0 0 19 18" fill="none" xmlns="http://www.w3.org/2000/svg">
<path d="M15.4381 2.25C15.6093 2.25 15.7014 2.45108 15.5895 2.58068L4.34298 15.6114C4.267 15.6994 4.15646 15.75 4.04017 15.75H3.26738C3.09619 15.75 3.00412 15.5489 3.11598 15.4193L14.3629 2.38864C14.4389 2.30061 14.5494 2.25 14.6657 2.25H15.4381Z" fill="#F8FCFB"/>
<path fill-rule="evenodd" clip-rule="evenodd" d="M12.1787 15.375L3.43262 2.625H6.79149L15.5376 15.375H12.1787Z" fill="black"/>
<path d="M6.29111 3.375C6.35705 3.375 6.41874 3.4075 6.45604 3.46187L13.8984 14.3119C13.9895 14.4446 13.8944 14.625 13.7335 14.625H12.6788C12.6129 14.625 12.5512 14.5925 12.5139 14.5381L5.07149 3.68813C4.98045 3.55541 5.07548 3.375 5.23642 3.375H6.29111ZM7.13792 2.46717C7.04468 2.33124 6.89044 2.25 6.7256 2.25H3.67C3.26765 2.25 3.03009 2.70104 3.25768 3.03283L11.832 15.5328C11.9252 15.6688 12.0795 15.75 12.2443 15.75H15.2999C15.7023 15.75 15.9398 15.299 15.7122 14.9672L7.13792 2.46717Z" fill="white"/>
</svg>
