<svg width="24" height="24" viewBox="0 0 18 18" fill="none" xmlns="http://www.w3.org/2000/svg">
<path d="M11.25 17.0625H6.75C2.6775 17.0625 0.9375 15.3225 0.9375 11.25V6.75C0.9375 2.6775 2.6775 0.9375 6.75 0.9375H11.25C15.3225 0.9375 17.0625 2.6775 17.0625 6.75V11.25C17.0625 15.3225 15.3225 17.0625 11.25 17.0625ZM6.75 2.0625C3.2925 2.0625 2.0625 3.2925 2.0625 6.75V11.25C2.0625 14.7075 3.2925 15.9375 6.75 15.9375H11.25C14.7075 15.9375 15.9375 14.7075 15.9375 11.25V6.75C15.9375 3.2925 14.7075 2.0625 11.25 2.0625H6.75Z" fill="#F8FCFB"/>
<path fill-rule="evenodd" clip-rule="evenodd" d="M9 5.4375C7.01699 5.4375 5.4375 7.02933 5.4375 9C5.4375 9.31066 5.18566 9.5625 4.875 9.5625C4.56434 9.5625 4.3125 9.31066 4.3125 9C4.3125 6.41067 6.39301 4.3125 9 4.3125C10.5433 4.3125 11.6978 4.95831 12.4552 5.59071C12.4919 5.62132 12.5276 5.65192 12.5625 5.68245V5.1075C12.5625 4.79684 12.8143 4.545 13.125 4.545C13.4357 4.545 13.6875 4.79684 13.6875 5.1075V7.17C13.6875 7.48066 13.4357 7.7325 13.125 7.7325H11.295C10.9843 7.7325 10.7325 7.48066 10.7325 7.17C10.7325 6.85934 10.9843 6.6075 11.295 6.6075H11.9091C11.8539 6.55676 11.7955 6.50552 11.7342 6.45429C11.1172 5.93918 10.2092 5.4375 9 5.4375ZM13.125 8.4375C13.4357 8.4375 13.6875 8.68934 13.6875 9C13.6875 11.5907 11.5907 13.6875 9 13.6875C7.66465 13.6875 6.61831 13.0161 5.93311 12.3939C5.9203 12.3823 5.90759 12.3707 5.89499 12.359V12.8925C5.89499 13.2032 5.64315 13.455 5.33249 13.455C5.02183 13.455 4.76999 13.2032 4.76999 12.8925V10.83C4.76999 10.5193 5.02183 10.2675 5.33249 10.2675H7.1925C7.50316 10.2675 7.755 10.5193 7.755 10.83C7.755 11.1407 7.50316 11.3925 7.1925 11.3925H6.51223C6.56823 11.4483 6.62731 11.5047 6.68938 11.5611C7.26794 12.0864 8.05535 12.5625 9 12.5625C10.9693 12.5625 12.5625 10.9693 12.5625 9C12.5625 8.68934 12.8143 8.4375 13.125 8.4375Z" fill="#F8FCFB"/>
</svg>
