<svg width="22" height="22" viewBox="0 0 22 22" fill="none" xmlns="http://www.w3.org/2000/svg">
<g id="vuesax/outline/video-slash">
<g id="video-slash">
<path id="Vector" d="M3.3 18.92C3.13 18.92 2.96 18.86 2.82 18.75C1.81 17.92 1.25 16.59 1.25 15V7C1.25 3.58 2.58 2.25 6 2.25H12C14.04 2.25 16.18 2.63 16.64 5.48C16.71 5.89 16.43 6.27 16.02 6.34C15.61 6.41 15.23 6.13 15.16 5.72C14.95 4.42 14.4 3.75 12 3.75H6C3.42 3.75 2.75 4.42 2.75 7V15C2.75 15.65 2.88 16.86 3.77 17.59C4.09 17.85 4.14 18.33 3.87 18.65C3.73 18.83 3.51 18.92 3.3 18.92Z" fill="white"/>
<path id="Vector_2" d="M12 19.75H7C6.59 19.75 6.25 19.41 6.25 19C6.25 18.59 6.59 18.25 7 18.25H12C14.58 18.25 15.25 17.58 15.25 15V10C15.25 9.59 15.59 9.25 16 9.25C16.41 9.25 16.75 9.59 16.75 10V15C16.75 18.42 15.42 19.75 12 19.75Z" fill="white"/>
<path id="Vector_3" d="M19.8 17.04C19.37 17.04 18.84 16.9 18.21 16.46L15.57 14.61C15.23 14.37 15.15 13.9 15.39 13.57C15.63 13.23 16.09 13.15 16.43 13.39L19.07 15.24C19.51 15.55 19.83 15.58 19.96 15.51C20.09 15.44 20.25 15.17 20.25 14.63V6C20.25 5.59 20.59 5.25 21 5.25C21.41 5.25 21.75 5.59 21.75 6V14.62C21.75 16.05 21.06 16.62 20.65 16.83C20.46 16.93 20.17 17.04 19.8 17.04Z" fill="white"/>
<path id="Vector_4" d="M1.02001 21.94C0.830007 21.94 0.640007 21.87 0.490007 21.72C0.200007 21.43 0.200007 20.95 0.490007 20.66L20.49 0.660005C20.78 0.370005 21.26 0.370005 21.55 0.660005C21.84 0.950005 21.84 1.43 21.55 1.72L1.55001 21.72C1.41001 21.87 1.21001 21.94 1.02001 21.94Z" fill="white"/>
</g>
</g>
</svg>
