<svg width="22" height="18" viewBox="0 0 22 18" fill="none" xmlns="http://www.w3.org/2000/svg">
<g id="vuesax/outline/video">
<g id="video">
<path id="Vector" d="M10.88 17.8596H4.81C1.26 17.8596 0 15.3696 0 13.0496V4.94965C0 1.48965 1.35 0.139648 4.81 0.139648H10.88C14.34 0.139648 15.69 1.48965 15.69 4.94965V13.0496C15.69 16.5096 14.34 17.8596 10.88 17.8596ZM4.81 1.65965C2.2 1.65965 1.52 2.33965 1.52 4.94965V13.0496C1.52 14.2796 1.95 16.3396 4.81 16.3396H10.88C13.49 16.3396 14.17 15.6596 14.17 13.0496V4.94965C14.17 2.33965 13.49 1.65965 10.88 1.65965H4.81Z" fill="white"/>
<path id="Vector_2" d="M18.7797 15.1095C18.3497 15.1095 17.7997 14.9695 17.1697 14.5295L14.4997 12.6595C14.2997 12.5195 14.1797 12.2895 14.1797 12.0395V5.95951C14.1797 5.70951 14.2997 5.47951 14.4997 5.33951L17.1697 3.46951C18.3597 2.63951 19.2297 2.87951 19.6397 3.08951C20.0497 3.30951 20.7497 3.87951 20.7497 5.32951V12.6595C20.7497 14.1095 20.0497 14.6895 19.6397 14.8995C19.4497 15.0095 19.1497 15.1095 18.7797 15.1095ZM15.6897 11.6395L18.0397 13.2795C18.4897 13.5895 18.8097 13.6195 18.9397 13.5495C19.0797 13.4795 19.2297 13.1995 19.2297 12.6595V5.33951C19.2297 4.78951 19.0697 4.51951 18.9397 4.44951C18.8097 4.37951 18.4897 4.40951 18.0397 4.71951L15.6897 6.35951V11.6395Z" fill="white"/>
<path id="Vector_3" d="M9.5 8.75C8.26 8.75 7.25 7.74 7.25 6.5C7.25 5.26 8.26 4.25 9.5 4.25C10.74 4.25 11.75 5.26 11.75 6.5C11.75 7.74 10.74 8.75 9.5 8.75ZM9.5 5.75C9.09 5.75 8.75 6.09 8.75 6.5C8.75 6.91 9.09 7.25 9.5 7.25C9.91 7.25 10.25 6.91 10.25 6.5C10.25 6.09 9.91 5.75 9.5 5.75Z" fill="white"/>
</g>
</g>
</svg>
