<svg width="20" height="20" viewBox="0 0 12 10" fill="none" xmlns="http://www.w3.org/2000/svg">
<g id="vuesax/outline/volume-high">
<g id="volume-high">
<path id="Vector" d="M6.275 9.2953C5.88 9.2953 5.445 9.1553 5.01 8.8803L3.55 7.9653C3.45 7.9053 3.335 7.8703 3.22 7.8703H2.5C1.29 7.8703 0.625 7.2053 0.625 5.9953V3.9953C0.625 2.7853 1.29 2.1203 2.5 2.1203H3.215C3.33 2.1203 3.445 2.0853 3.545 2.0253L5.005 1.1103C5.735 0.655297 6.445 0.570297 7.005 0.880297C7.565 1.1903 7.87 1.8353 7.87 2.7003V7.2853C7.87 8.1453 7.56 8.7953 7.005 9.1053C6.785 9.2353 6.535 9.2953 6.275 9.2953ZM2.5 2.8753C1.71 2.8753 1.375 3.2103 1.375 4.0003V6.0003C1.375 6.7903 1.71 7.1253 2.5 7.1253H3.215C3.475 7.1253 3.725 7.1953 3.945 7.3353L5.405 8.2503C5.885 8.5503 6.34 8.6303 6.645 8.4603C6.95 8.2903 7.125 7.8653 7.125 7.3003V2.7053C7.125 2.1353 6.95 1.7103 6.645 1.5453C6.34 1.3753 5.885 1.4503 5.405 1.7553L3.94 2.6653C3.725 2.8053 3.47 2.8753 3.215 2.8753H2.5Z" fill="white" fill-opacity="0.85"/>
<path id="Vector_2" d="M9.00014 7.37514C8.92014 7.37514 8.84514 7.35014 8.77514 7.30014C8.61014 7.17514 8.57514 6.94014 8.70014 6.77514C9.48514 5.73014 9.48514 4.27014 8.70014 3.22514C8.57514 3.06014 8.61014 2.82514 8.77514 2.70014C8.94014 2.57514 9.17514 2.61014 9.30014 2.77514C10.2801 4.08514 10.2801 5.91514 9.30014 7.22514C9.22514 7.32514 9.11514 7.37514 9.00014 7.37514Z" fill="white"/>
<path id="Vector_3" d="M9.91518 8.62514C9.83518 8.62514 9.76018 8.60014 9.69018 8.55014C9.52518 8.42514 9.49018 8.19014 9.61518 8.02514C10.9502 6.24514 10.9502 3.75514 9.61518 1.97514C9.49018 1.81014 9.52518 1.57514 9.69018 1.45014C9.85518 1.32514 10.0902 1.36014 10.2152 1.52514C11.7502 3.57014 11.7502 6.43014 10.2152 8.47514C10.1452 8.57514 10.0302 8.62514 9.91518 8.62514Z" fill="white"/>
</g>
</g>
</svg>
