<svg width="20" height="20" viewBox="0 0 12 12" fill="none" xmlns="http://www.w3.org/2000/svg">
<g id="vuesax/outline/volume-slash">
<g id="volume-slash">
<path id="Vector" d="M3.5 8.87518H2.5C1.29 8.87518 0.625 8.21018 0.625 7.00018V5.00018C0.625 3.79018 1.29 3.12518 2.5 3.12518H3.215C3.33 3.12518 3.445 3.09018 3.545 3.03018L5.005 2.11518C5.735 1.66018 6.445 1.57518 7.005 1.88518C7.565 2.19518 7.87 2.84018 7.87 3.70518V4.18518C7.87 4.39018 7.7 4.56018 7.495 4.56018C7.29 4.56018 7.12 4.39018 7.12 4.18518V3.70518C7.12 3.13518 6.945 2.71018 6.64 2.54518C6.335 2.37518 5.885 2.45018 5.4 2.75518L3.94 3.66518C3.725 3.80518 3.47 3.87518 3.215 3.87518H2.5C1.71 3.87518 1.375 4.21018 1.375 5.00018V7.00018C1.375 7.79018 1.71 8.12518 2.5 8.12518H3.5C3.705 8.12518 3.875 8.29518 3.875 8.50018C3.875 8.70518 3.705 8.87518 3.5 8.87518Z" fill="white" fill-opacity="0.85"/>
<path id="Vector_2" d="M6.2748 10.2946C5.8798 10.2946 5.4448 10.1546 5.0098 9.87961C4.8348 9.76961 4.7798 9.53961 4.8898 9.36461C4.9998 9.18961 5.2298 9.13461 5.4048 9.24461C5.8898 9.54461 6.3398 9.62461 6.6448 9.45461C6.9498 9.28461 7.1248 8.85961 7.1248 8.29461V6.47461C7.1248 6.26961 7.2948 6.09961 7.4998 6.09961C7.7048 6.09961 7.8748 6.26961 7.8748 6.47461V8.29461C7.8748 9.15461 7.5648 9.80461 7.0098 10.1146C6.7848 10.2346 6.5348 10.2946 6.2748 10.2946Z" fill="white"/>
<path id="Vector_3" d="M9.00014 8.37516C8.92014 8.37516 8.84514 8.35016 8.77514 8.30016C8.61014 8.17516 8.57514 7.94016 8.70014 7.77516C9.33014 6.93516 9.46514 5.82016 9.06014 4.85516C8.98014 4.66516 9.07014 4.44516 9.26014 4.36516C9.45014 4.28516 9.67014 4.37516 9.75014 4.56516C10.2601 5.77516 10.0851 7.18016 9.30014 8.23016C9.22514 8.32516 9.11514 8.37516 9.00014 8.37516Z" fill="white"/>
<path id="Vector_4" d="M9.91518 9.62461C9.83518 9.62461 9.76018 9.59961 9.69018 9.54961C9.52518 9.42461 9.49018 9.18961 9.61518 9.02461C10.6852 7.59961 10.9202 5.68961 10.2302 4.04461C10.1502 3.85461 10.2402 3.63461 10.4302 3.55461C10.6252 3.47461 10.8402 3.56461 10.9202 3.75461C11.7152 5.64461 11.4452 7.83461 10.2152 9.47461C10.1452 9.57461 10.0302 9.62461 9.91518 9.62461Z" fill="white"/>
<path id="Vector_5" d="M0.999727 11.3747C0.904727 11.3747 0.809727 11.3397 0.734727 11.2647C0.589727 11.1197 0.589727 10.8797 0.734727 10.7347L10.7347 0.734727C10.8797 0.589727 11.1197 0.589727 11.2647 0.734727C11.4097 0.879727 11.4097 1.11973 11.2647 1.26473L1.26473 11.2647C1.18973 11.3397 1.09473 11.3747 0.999727 11.3747Z" fill="white"/>
</g>
</g>
</svg>
