<svg width="23" height="22" viewBox="0 0 23 22" fill="none" xmlns="http://www.w3.org/2000/svg">
<g id="vuesax/outline/danger">
<g id="danger">
<path id="Vector" d="M11.5 13.75C11.09 13.75 10.75 13.41 10.75 13V8C10.75 7.59 11.09 7.25 11.5 7.25C11.91 7.25 12.25 7.59 12.25 8V13C12.25 13.41 11.91 13.75 11.5 13.75Z" fill="white"/>
<path id="Vector_2" d="M11.5 16.9996C11.44 16.9996 11.37 16.9896 11.3 16.9796C11.24 16.9696 11.18 16.9496 11.12 16.9196C11.06 16.8996 11 16.8696 10.94 16.8296C10.89 16.7896 10.84 16.7496 10.79 16.7096C10.61 16.5196 10.5 16.2596 10.5 15.9996C10.5 15.7396 10.61 15.4796 10.79 15.2896C10.84 15.2496 10.89 15.2096 10.94 15.1696C11 15.1296 11.06 15.0996 11.12 15.0796C11.18 15.0496 11.24 15.0296 11.3 15.0196C11.43 14.9896 11.57 14.9896 11.69 15.0196C11.76 15.0296 11.82 15.0496 11.88 15.0796C11.94 15.0996 12 15.1296 12.06 15.1696C12.11 15.2096 12.16 15.2496 12.21 15.2896C12.39 15.4796 12.5 15.7396 12.5 15.9996C12.5 16.2596 12.39 16.5196 12.21 16.7096C12.16 16.7496 12.11 16.7896 12.06 16.8296C12 16.8696 11.94 16.8996 11.88 16.9196C11.82 16.9496 11.76 16.9696 11.69 16.9796C11.63 16.9896 11.56 16.9996 11.5 16.9996Z" fill="white"/>
<path id="Vector_3" d="M17.5605 21.1598H5.44046C3.49046 21.1598 2.00046 20.4498 1.24046 19.1698C0.490464 17.8898 0.590464 16.2398 1.54046 14.5298L7.60046 3.62984C8.60046 1.82984 9.98046 0.839844 11.5005 0.839844C13.0205 0.839844 14.4005 1.82984 15.4005 3.62984L21.4605 14.5398C22.4105 16.2498 22.5205 17.8898 21.7605 19.1798C21.0005 20.4498 19.5105 21.1598 17.5605 21.1598ZM11.5005 2.33984C10.5605 2.33984 9.64046 3.05984 8.91046 4.35984L2.86046 15.2698C2.18046 16.4898 2.07046 17.6098 2.54046 18.4198C3.01046 19.2298 4.05046 19.6698 5.45046 19.6698H17.5705C18.9705 19.6698 20.0005 19.2298 20.4805 18.4198C20.9605 17.6098 20.8405 16.4998 20.1605 15.2698L14.0905 4.35984C13.3605 3.05984 12.4405 2.33984 11.5005 2.33984Z" fill="white"/>
</g>
</g>
</svg>
